<?xml version="1.0" encoding="UTF-8"?>
<svg version="1.1" xmlns="http://www.w3.org/2000/svg" width="474" height="316">
<path d="M0 0 C6.49751058 6.49751058 8.64449718 12.96796521 8.69970703 22.05633545 C8.53894814 29.71609001 6.04470658 36.49656244 3.3125 43.5625 C2.80245586 44.93387195 2.29409387 46.30587062 1.78735352 47.6784668 C-1.4638289 56.41435725 -4.97811877 65.03204846 -8.6796875 73.5859375 C-14.32765339 86.72713322 -19.23874747 100.1938814 -24.0390625 113.6640625 C-24.32600479 114.46733475 -24.61294708 115.27060699 -24.90858459 116.09822083 C-26.32821592 120.07520537 -27.73865289 124.05504186 -29.13354492 128.04077148 C-36.33105661 148.43120681 -36.33105661 148.43120681 -42.6875 152.75 C-43.326875 153.20246094 -43.96625 153.65492188 -44.625 154.12109375 C-51.54850925 158.12046936 -59.31314203 158.70683261 -67.06640625 156.6953125 C-78.58996667 151.59878675 -82.29073902 140.08746627 -86.55908203 129.18847656 C-87.78101295 126.07416539 -89.02717279 122.97026573 -90.27734375 119.8671875 C-91.99000429 115.61130571 -93.69556265 111.3527657 -95.390625 107.08984375 C-95.77541016 106.12675293 -96.16019531 105.16366211 -96.55664062 104.17138672 C-97.31832142 102.24580767 -98.06678934 100.31495574 -98.80273438 98.37939453 C-99.15142578 97.4717334 -99.50011719 96.56407227 -99.859375 95.62890625 C-100.16456055 94.8201001 -100.46974609 94.01129395 -100.78417969 93.17797852 C-101.54094477 91.13156602 -101.54094477 91.13156602 -103.6875 90.3125 C-103.95433594 91.02664062 -104.22117187 91.74078125 -104.49609375 92.4765625 C-105.7166942 95.38199178 -107.14414672 97.97691078 -108.75 100.6875 C-109.37777344 101.74839844 -110.00554687 102.80929688 -110.65234375 103.90234375 C-111.65974609 105.59037109 -111.65974609 105.59037109 -112.6875 107.3125 C-113.67943359 108.98505859 -113.67943359 108.98505859 -114.69140625 110.69140625 C-119.18771648 118.25013087 -123.77113472 125.75641877 -128.375 133.25 C-128.90947754 134.1258374 -129.44395508 135.0016748 -129.99462891 135.90405273 C-139.54478447 151.38652285 -139.54478447 151.38652285 -145.3125 154.25 C-146.41464844 154.82041016 -146.41464844 154.82041016 -147.5390625 155.40234375 C-153.55957714 157.95285268 -160.09847431 158.48603773 -166.3515625 156.44140625 C-175.04193658 152.43753299 -178.97171734 147.62839973 -182.5 138.8125 C-185.81022843 129.71566399 -188.36520198 120.36075566 -191.01879883 111.05664062 C-193.95394821 100.76988568 -197.03766986 90.53541136 -200.1875 80.3125 C-203.81355092 68.52406151 -207.36980902 56.71836679 -210.8125 44.875 C-211.00481201 44.21588623 -211.19712402 43.55677246 -211.39526367 42.87768555 C-211.93529208 41.02465605 -212.47163721 39.17055432 -213.0078125 37.31640625 C-213.30961426 36.27299072 -213.61141602 35.2295752 -213.92236328 34.15454102 C-216.27016514 25.43381306 -217.06096176 17.60976592 -212.87890625 9.34765625 C-209.37764383 3.36681126 -205.3723167 -0.54747617 -198.6875 -2.6875 C-191.10804403 -4.19513021 -184.67641367 -4.10100416 -177.6875 -0.6875 C-177.06101563 -0.39230469 -176.43453125 -0.09710938 -175.7890625 0.20703125 C-165.4734074 6.22074285 -163.01194048 21.10393781 -160.1875 31.8125 C-159.61306378 33.93255064 -159.03417606 36.05135542 -158.45518494 38.17016602 C-158.07306378 39.56999196 -157.69240157 40.97021704 -157.31324768 42.37084961 C-155.68373567 48.38188459 -153.93535923 54.35340085 -152.125 60.3125 C-151.87363281 61.14201172 -151.62226563 61.97152344 -151.36328125 62.82617188 C-150.80722603 64.65572138 -150.24783864 66.48425784 -149.6875 68.3125 C-141.9348578 56.09107736 -134.53881524 43.73426236 -127.62255859 31.01782227 C-116.36365174 10.50897696 -116.36365174 10.50897696 -104.125 6 C-95.56185738 4.28737148 -89.02431398 6.00924957 -81.66796875 10.5625 C-72.76808159 17.3876858 -69.82113441 29.89525144 -66.18334961 40.05615234 C-65.36576404 42.33828034 -64.53806896 44.61655861 -63.70898438 46.89453125 C-63.18430855 48.34614203 -62.66019856 49.79795748 -62.13671875 51.25 C-61.88991867 51.9301416 -61.64311859 52.6102832 -61.38883972 53.31103516 C-59.6875 58.08045917 -59.6875 58.08045917 -59.6875 60.3125 C-59.0275 60.3125 -58.3675 60.3125 -57.6875 60.3125 C-57.50741898 59.69979752 -57.32733795 59.08709503 -57.14179993 58.45582581 C-54.59708482 49.87504093 -51.7343155 41.42003105 -48.80932617 32.96264648 C-48.18645769 31.15426087 -47.56893903 29.34402373 -46.95678711 27.53198242 C-38.66490693 2.99822931 -38.66490693 2.99822931 -28.6171875 -2.8125 C-19.25863857 -7.05605255 -8.45188098 -5.30699503 0 0 Z " fill="#FA7146" transform="translate(342.6875,81.6875)"/>
<path d="M0 0 C6.49751058 6.49751058 8.64449718 12.96796521 8.69970703 22.05633545 C8.53894814 29.71609001 6.04470658 36.49656244 3.3125 43.5625 C2.80245586 44.93387195 2.29409387 46.30587062 1.78735352 47.6784668 C-1.4638289 56.41435725 -4.97811877 65.03204846 -8.6796875 73.5859375 C-14.32765339 86.72713322 -19.23874747 100.1938814 -24.0390625 113.6640625 C-24.32600479 114.46733475 -24.61294708 115.27060699 -24.90858459 116.09822083 C-26.32821592 120.07520537 -27.73865289 124.05504186 -29.13354492 128.04077148 C-36.33105661 148.43120681 -36.33105661 148.43120681 -42.6875 152.75 C-43.326875 153.20246094 -43.96625 153.65492188 -44.625 154.12109375 C-51.54850925 158.12046936 -59.31314203 158.70683261 -67.06640625 156.6953125 C-78.58996667 151.59878675 -82.29073902 140.08746627 -86.55908203 129.18847656 C-87.78101295 126.07416539 -89.02717279 122.97026573 -90.27734375 119.8671875 C-91.99000429 115.61130571 -93.69556265 111.3527657 -95.390625 107.08984375 C-95.77541016 106.12675293 -96.16019531 105.16366211 -96.55664062 104.17138672 C-97.31832142 102.24580767 -98.06678934 100.31495574 -98.80273438 98.37939453 C-99.15142578 97.4717334 -99.50011719 96.56407227 -99.859375 95.62890625 C-100.16456055 94.8201001 -100.46974609 94.01129395 -100.78417969 93.17797852 C-101.54094477 91.13156602 -101.54094477 91.13156602 -103.6875 90.3125 C-103.94660156 91.01117188 -104.20570313 91.70984375 -104.47265625 92.4296875 C-105.80625927 95.59431461 -107.396256 98.47075224 -109.125 101.4375 C-109.72183594 102.47132813 -110.31867188 103.50515625 -110.93359375 104.5703125 C-112.38425131 106.83837844 -113.68921964 108.54032476 -115.6875 110.3125 C-115.3575 107.6725 -115.0275 105.0325 -114.6875 102.3125 C-114.0275 102.3125 -113.3675 102.3125 -112.6875 102.3125 C-112.584375 101.57 -112.48125 100.8275 -112.375 100.0625 C-111.63156435 97.08875741 -110.58943275 95.67089661 -108.6875 93.3125 C-108.2234375 92.2296875 -108.2234375 92.2296875 -107.75 91.125 C-106.6875 89.3125 -106.6875 89.3125 -104.6875 88.5625 C-102.6875 88.3125 -102.6875 88.3125 -100.6875 88.3125 C-100.1925 87.3225 -100.1925 87.3225 -99.6875 86.3125 C-98.43085022 89.21850261 -97.6875 91.10854584 -97.6875 94.3125 C-97.0275 94.3125 -96.3675 94.3125 -95.6875 94.3125 C-95.3575 96.2925 -95.0275 98.2725 -94.6875 100.3125 C-94.0275 100.3125 -93.3675 100.3125 -92.6875 100.3125 C-92.6875 103.6125 -92.6875 106.9125 -92.6875 110.3125 C-91.6975 110.3125 -90.7075 110.3125 -89.6875 110.3125 C-89.3575 112.9525 -89.0275 115.5925 -88.6875 118.3125 C-87.2025 118.8075 -87.2025 118.8075 -85.6875 119.3125 C-85.6875 121.2925 -85.6875 123.2725 -85.6875 125.3125 C-84.25109829 125.50823608 -82.81330496 125.69377816 -81.375 125.875 C-80.57449219 125.97941406 -79.77398437 126.08382812 -78.94921875 126.19140625 C-76.51932884 126.46005178 -76.51932884 126.46005178 -73.6875 125.3125 C-73.3575 126.6325 -73.0275 127.9525 -72.6875 129.3125 C-73.3475 129.6425 -74.0075 129.9725 -74.6875 130.3125 C-75.3475 129.9825 -76.0075 129.6525 -76.6875 129.3125 C-76.3575 130.3025 -76.0275 131.2925 -75.6875 132.3125 C-76.0175 133.09625 -76.3475 133.88 -76.6875 134.6875 C-77.84411633 137.72361787 -77.56548706 139.23954527 -76.6875 142.3125 C-75.6975 142.3125 -74.7075 142.3125 -73.6875 142.3125 C-73.1925 144.7875 -73.1925 144.7875 -72.6875 147.3125 C-72.0275 146.9825 -71.3675 146.6525 -70.6875 146.3125 C-70.3575 147.3025 -70.0275 148.2925 -69.6875 149.3125 C-70.0175 149.9725 -70.3475 150.6325 -70.6875 151.3125 C-70.06875 151.1475 -69.45 150.9825 -68.8125 150.8125 C-66.01559293 150.36499487 -63.56991703 150.27847385 -60.75 150.3125 C-56.94267528 150.35802855 -53.42939961 150.10026834 -49.6875 149.3125 C-50.0175 149.9725 -50.3475 150.6325 -50.6875 151.3125 C-49.0375 150.9825 -47.3875 150.6525 -45.6875 150.3125 C-45.6875 149.6525 -45.6875 148.9925 -45.6875 148.3125 C-44.3125 146.6875 -44.3125 146.6875 -42.6875 145.3125 C-42.0275 145.3125 -41.3675 145.3125 -40.6875 145.3125 C-38.64448846 140.78868873 -37.67793705 136.14878305 -36.6875 131.3125 C-36.0275 131.3125 -35.3675 131.3125 -34.6875 131.3125 C-34.6875 130.6525 -34.6875 129.9925 -34.6875 129.3125 C-35.6775 129.6425 -36.6675 129.9725 -37.6875 130.3125 C-38.0175 129.6525 -38.3475 128.9925 -38.6875 128.3125 C-36.6875 126.3125 -36.6875 126.3125 -34.0625 126.1875 C-33.27875 126.22875 -32.495 126.27 -31.6875 126.3125 C-31.62691406 125.58804688 -31.56632812 124.86359375 -31.50390625 124.1171875 C-31.07266567 119.14133467 -30.61702359 114.22569609 -29.6875 109.3125 C-28.0375 108.9825 -26.3875 108.6525 -24.6875 108.3125 C-24.34929834 106.7301994 -24.01714061 105.14660625 -23.6875 103.5625 C-23.4090625 102.23992187 -23.4090625 102.23992187 -23.125 100.890625 C-22.57596325 98.09106035 -22.57596325 98.09106035 -22.6875 94.3125 C-22.6875 92.9925 -22.6875 91.6725 -22.6875 90.3125 C-22.0275 90.3125 -21.3675 90.3125 -20.6875 90.3125 C-20.6875 88.9925 -20.6875 87.6725 -20.6875 86.3125 C-19.3675 86.3125 -18.0475 86.3125 -16.6875 86.3125 C-16.48253906 85.12011719 -16.27757812 83.92773438 -16.06640625 82.69921875 C-15.79439193 81.13279147 -15.52224985 79.56638636 -15.25 78 C-15.11529297 77.21431641 -14.98058594 76.42863281 -14.84179688 75.61914062 C-14.64360352 74.4831543 -14.64360352 74.4831543 -14.44140625 73.32421875 C-14.32095947 72.62772217 -14.2005127 71.93122559 -14.07641602 71.21362305 C-13.6875 69.3125 -13.6875 69.3125 -12.6875 66.3125 C-12.0275 66.3125 -11.3675 66.3125 -10.6875 66.3125 C-11.0175 64.9925 -11.3475 63.6725 -11.6875 62.3125 C-9.7075 62.3125 -7.7275 62.3125 -5.6875 62.3125 C-5.66048592 60.20840361 -5.64109777 58.10420822 -5.625 56 C-5.61339844 54.82824219 -5.60179687 53.65648437 -5.58984375 52.44921875 C-5.53850102 49.28190805 -5.53850102 49.28190805 -6.6875 46.3125 C-6.0275 46.3125 -5.3675 46.3125 -4.6875 46.3125 C-2.95087666 43.08734237 -1.7969072 39.79920834 -0.6875 36.3125 C-0.0275 36.3125 0.6325 36.3125 1.3125 36.3125 C1.3125 31.0325 1.3125 25.7525 1.3125 20.3125 C1.9725 20.3125 2.6325 20.3125 3.3125 20.3125 C3.3125 18.3325 3.3125 16.3525 3.3125 14.3125 C1.14375748 14.81853992 -0.68717627 15.31233813 -2.6875 16.3125 C-3.6775 15.3225 -3.6775 15.3225 -4.6875 14.3125 C-5.3475 14.3125 -6.0075 14.3125 -6.6875 14.3125 C-6.71446365 12.52091511 -6.73387917 10.72921527 -6.75 8.9375 C-6.76160156 7.93976563 -6.77320313 6.94203125 -6.78515625 5.9140625 C-6.6875 3.3125 -6.6875 3.3125 -5.6875 1.3125 C-6.3475 1.3125 -7.0075 1.3125 -7.6875 1.3125 C-7.6875 0.6525 -7.6875 -0.0075 -7.6875 -0.6875 C-12.3075 -0.3575 -16.9275 -0.0275 -21.6875 0.3125 C-21.955625 1.364375 -22.22375 2.41625 -22.5 3.5 C-23.56937991 6.93327235 -24.46897024 9.49667377 -26.6875 12.3125 C-28.0075 12.3125 -29.3275 12.3125 -30.6875 12.3125 C-31.0175 12.9725 -31.3475 13.6325 -31.6875 14.3125 C-32.491875 14.43625 -33.29625 14.56 -34.125 14.6875 C-36.84733399 15.03817164 -36.84733399 15.03817164 -38 17.375 C-38.226875 18.014375 -38.45375 18.65375 -38.6875 19.3125 C-39.3475 19.3125 -40.0075 19.3125 -40.6875 19.3125 C-40.79707031 20.32570313 -40.90664063 21.33890625 -41.01953125 22.3828125 C-41.17909893 23.73444461 -41.33928833 25.08600343 -41.5 26.4375 C-41.60538086 27.43523437 -41.60538086 27.43523437 -41.71289062 28.453125 C-42.26594962 32.96608636 -43.4756741 36.35944946 -45.6875 40.3125 C-46.4572955 42.41194227 -46.71627473 43.96576446 -46.53125 46.1953125 C-46.37262701 48.344654 -46.28884829 50.190787 -46.6875 52.3125 C-48.66696592 53.67613208 -50.6694245 55.00668644 -52.6875 56.3125 C-54.12966249 59.19682497 -54.90499369 62.19297821 -55.6875 65.3125 C-57.49983933 72.12483933 -57.49983933 72.12483933 -59.6875 74.3125 C-60.72592565 76.62898799 -61.7296975 78.96153024 -62.6875 81.3125 C-63.3475 81.3125 -64.0075 81.3125 -64.6875 81.3125 C-65.6875 78.3125 -65.6875 78.3125 -64.47265625 75.859375 C-63.90417969 74.93640625 -63.33570313 74.0134375 -62.75 73.0625 C-60.07506313 68.41070448 -58.98083521 65.61248596 -59.6875 60.3125 C-59.0275 60.3125 -58.3675 60.3125 -57.6875 60.3125 C-57.50741898 59.69979752 -57.32733795 59.08709503 -57.14179993 58.45582581 C-54.59708482 49.87504093 -51.7343155 41.42003105 -48.80932617 32.96264648 C-48.18645769 31.15426087 -47.56893903 29.34402373 -46.95678711 27.53198242 C-38.66490693 2.99822931 -38.66490693 2.99822931 -28.6171875 -2.8125 C-19.25863857 -7.05605255 -8.45188098 -5.30699503 0 0 Z " fill="#F0972C" transform="translate(342.6875,81.6875)"/>
<path d="M0 0 C7.64360776 7.21826789 10.16455826 17.03140712 12.82421875 26.87890625 C13.20413354 28.24204077 13.58558279 29.6047485 13.96850586 30.96704102 C14.74143093 33.72161895 15.50754303 36.47794801 16.26855469 39.23583984 C17.93123297 45.23963505 19.69268602 51.21453766 21.44921875 57.19140625 C22.02381284 59.15874458 22.59807211 61.12618076 23.171875 63.09375 C23.5767923 64.48047769 23.98172701 65.8672003 24.38671875 67.25390625 C32.13936095 55.03248361 39.53540351 42.67566861 46.45166016 29.95922852 C57.71056701 9.45038321 57.71056701 9.45038321 69.94921875 4.94140625 C78.63003234 3.20524353 84.94887536 5.09284215 92.4765625 9.46875 C97.31558405 12.99826889 98.66699745 16.95912778 100.07421875 22.66796875 C100.3829491 25.22271242 100.20337603 26.8379618 99.38671875 29.25390625 C98.72671875 28.92390625 98.06671875 28.59390625 97.38671875 28.25390625 C97.38671875 26.93390625 97.38671875 25.61390625 97.38671875 24.25390625 C96.72671875 24.25390625 96.06671875 24.25390625 95.38671875 24.25390625 C95.11859375 23.61453125 94.85046875 22.97515625 94.57421875 22.31640625 C93.50004123 19.92258939 93.50004123 19.92258939 90.38671875 19.25390625 C90.38671875 18.59390625 90.38671875 17.93390625 90.38671875 17.25390625 C89.39671875 16.92390625 88.40671875 16.59390625 87.38671875 16.25390625 C87.05671875 15.26390625 86.72671875 14.27390625 86.38671875 13.25390625 C84.07671875 13.25390625 81.76671875 13.25390625 79.38671875 13.25390625 C79.38671875 12.59390625 79.38671875 11.93390625 79.38671875 11.25390625 C71.46671875 12.73890625 71.46671875 12.73890625 63.38671875 14.25390625 C63.05671875 15.57390625 62.72671875 16.89390625 62.38671875 18.25390625 C61.39671875 19.05828125 60.40671875 19.86265625 59.38671875 20.69140625 C56.24259278 22.9411351 56.24259278 22.9411351 55.44921875 25.94140625 C55.20422353 28.28159518 55.20422353 28.28159518 56.38671875 30.25390625 C56.06815424 32.25631174 55.73250643 34.25602187 55.38671875 36.25390625 C55.38671875 37.32640625 55.38671875 38.39890625 55.38671875 39.50390625 C55.38671875 42.25390625 55.38671875 42.25390625 54.38671875 44.25390625 C53.72671875 44.25390625 53.06671875 44.25390625 52.38671875 44.25390625 C52.38671875 41.94390625 52.38671875 39.63390625 52.38671875 37.25390625 C51.56171875 38.20265625 50.73671875 39.15140625 49.88671875 40.12890625 C49.42265625 40.66257813 48.95859375 41.19625 48.48046875 41.74609375 C47.19099417 43.21327046 47.19099417 43.21327046 47.38671875 45.25390625 C46.43796875 45.46015625 45.48921875 45.66640625 44.51171875 45.87890625 C41.17215567 46.95133479 41.17215567 46.95133479 40.01171875 50.00390625 C39.40006162 53.18452331 39.23293431 56.02443301 39.38671875 59.25390625 C37.40671875 60.24390625 37.40671875 60.24390625 35.38671875 61.25390625 C35.38671875 60.59390625 35.38671875 59.93390625 35.38671875 59.25390625 C31.64146076 62.99916424 31.69761926 67.23661534 31.38671875 72.25390625 C30.41734375 72.50140625 29.44796875 72.74890625 28.44921875 73.00390625 C27.43859375 73.41640625 26.42796875 73.82890625 25.38671875 74.25390625 C24.41794818 76.28634173 24.41794818 76.28634173 24.38671875 78.25390625 C23.72671875 77.92390625 23.06671875 77.59390625 22.38671875 77.25390625 C21.97265625 74.96875 21.97265625 74.96875 21.76171875 72.19140625 C21.68695313 71.27230469 21.6121875 70.35320312 21.53515625 69.40625 C21.48617187 68.69597656 21.4371875 67.98570312 21.38671875 67.25390625 C20.39671875 67.25390625 19.40671875 67.25390625 18.38671875 67.25390625 C18.19140625 65.203125 17.99609375 63.15234375 17.80078125 61.1015625 C17.59582031 60.18697266 17.59582031 60.18697266 17.38671875 59.25390625 C16.39671875 58.75890625 16.39671875 58.75890625 15.38671875 58.25390625 C14.97265625 55.53125 14.97265625 55.53125 14.76171875 52.19140625 C14.68695313 51.08667969 14.6121875 49.98195312 14.53515625 48.84375 C14.48617187 47.98910156 14.4371875 47.13445312 14.38671875 46.25390625 C12.73671875 45.92390625 11.08671875 45.59390625 9.38671875 45.25390625 C9.40734375 44.24328125 9.42796875 43.23265625 9.44921875 42.19140625 C9.38984141 38.45063368 8.9887679 34.94145727 8.38671875 31.25390625 C8.05671875 31.25390625 7.72671875 31.25390625 7.38671875 31.25390625 C7.05671875 25.64390625 6.72671875 20.03390625 6.38671875 14.25390625 C4.07671875 13.92390625 1.76671875 13.59390625 -0.61328125 13.25390625 C-1.10828125 12.26390625 -1.10828125 12.26390625 -1.61328125 11.25390625 C-2.93328125 11.25390625 -4.25328125 11.25390625 -5.61328125 11.25390625 C-6.73828125 6.50390625 -6.73828125 6.50390625 -5.61328125 4.25390625 C-6.19078125 4.41890625 -6.76828125 4.58390625 -7.36328125 4.75390625 C-9.61328125 5.25390625 -9.61328125 5.25390625 -13.61328125 5.25390625 C-13.61328125 4.26390625 -13.61328125 3.27390625 -13.61328125 2.25390625 C-14.27328125 1.92390625 -14.93328125 1.59390625 -15.61328125 1.25390625 C-15.61328125 2.57390625 -15.61328125 3.89390625 -15.61328125 5.25390625 C-16.93328125 4.92390625 -18.25328125 4.59390625 -19.61328125 4.25390625 C-19.28328125 3.26390625 -18.95328125 2.27390625 -18.61328125 1.25390625 C-19.27328125 0.92390625 -19.93328125 0.59390625 -20.61328125 0.25390625 C-22.81681063 4.18878014 -24.61328125 8.70401415 -24.61328125 13.25390625 C-28.57328125 13.74890625 -28.57328125 13.74890625 -32.61328125 14.25390625 C-32.61328125 16.56390625 -32.61328125 18.87390625 -32.61328125 21.25390625 C-33.27328125 21.58390625 -33.93328125 21.91390625 -34.61328125 22.25390625 C-35.27328125 21.92390625 -35.93328125 21.59390625 -36.61328125 21.25390625 C-36.61328125 22.90390625 -36.61328125 24.55390625 -36.61328125 26.25390625 C-35.62328125 25.92390625 -34.63328125 25.59390625 -33.61328125 25.25390625 C-33.53900287 28.59643349 -33.54781172 31.05749765 -34.61328125 34.25390625 C-33.81158406 37.58403305 -32.86563553 40.67909928 -31.48828125 43.81640625 C-30.44006742 46.73643049 -30.47007227 49.17491326 -30.61328125 52.25390625 C-29.95328125 52.25390625 -29.29328125 52.25390625 -28.61328125 52.25390625 C-28.28328125 56.21390625 -27.95328125 60.17390625 -27.61328125 64.25390625 C-26.62328125 64.58390625 -25.63328125 64.91390625 -24.61328125 65.25390625 C-24.5153125 66.01574219 -24.41734375 66.77757812 -24.31640625 67.5625 C-23.57264257 72.69831647 -22.85418582 77.19487507 -20.42578125 81.81640625 C-17.85496825 86.97700505 -18.66149468 91.71906042 -19.61328125 97.25390625 C-21.62947117 94.22962138 -22.44051102 91.91789686 -23.4609375 88.453125 C-23.81470459 87.26227295 -24.16847168 86.0714209 -24.53295898 84.84448242 C-24.91401967 83.54349215 -25.29495735 82.24246585 -25.67578125 80.94140625 C-26.07119983 79.60312479 -26.46712202 78.26499204 -26.86352539 76.92700195 C-27.48153406 74.84050841 -28.09906691 72.75388372 -28.71464539 70.66667175 C-30.16789409 65.74143512 -31.64528217 60.82395298 -33.13671875 55.91015625 C-33.54553949 54.56031726 -33.95431292 53.21046394 -34.36303711 51.8605957 C-35.13733579 49.30364697 -35.914644 46.74767837 -36.69360352 44.19213867 C-44.27109875 19.0885579 -44.27109875 19.0885579 -38.8046875 8.2890625 C-34.66679618 1.22073011 -29.61725303 -2.3005019 -21.80078125 -4.55859375 C-13.53215259 -5.04498367 -7.25508424 -4.12640615 0 0 Z " fill="#E95968" transform="translate(168.61328125,82.74609375)"/>
<path d="M0 0 C4.83902155 3.52951889 6.19043495 7.49037778 7.59765625 13.19921875 C7.9063866 15.75396242 7.72681353 17.3692118 6.91015625 19.78515625 C6.25015625 19.45515625 5.59015625 19.12515625 4.91015625 18.78515625 C4.91015625 17.46515625 4.91015625 16.14515625 4.91015625 14.78515625 C4.25015625 14.78515625 3.59015625 14.78515625 2.91015625 14.78515625 C2.64203125 14.14578125 2.37390625 13.50640625 2.09765625 12.84765625 C1.02347873 10.45383939 1.02347873 10.45383939 -2.08984375 9.78515625 C-2.08984375 9.12515625 -2.08984375 8.46515625 -2.08984375 7.78515625 C-3.07984375 7.45515625 -4.06984375 7.12515625 -5.08984375 6.78515625 C-5.58484375 5.30015625 -5.58484375 5.30015625 -6.08984375 3.78515625 C-8.39984375 3.78515625 -10.70984375 3.78515625 -13.08984375 3.78515625 C-13.08984375 3.12515625 -13.08984375 2.46515625 -13.08984375 1.78515625 C-21.00984375 3.27015625 -21.00984375 3.27015625 -29.08984375 4.78515625 C-29.41984375 6.10515625 -29.74984375 7.42515625 -30.08984375 8.78515625 C-31.07984375 9.58953125 -32.06984375 10.39390625 -33.08984375 11.22265625 C-36.23396972 13.4723851 -36.23396972 13.4723851 -37.02734375 16.47265625 C-37.27233897 18.81284518 -37.27233897 18.81284518 -36.08984375 20.78515625 C-36.40840826 22.78756174 -36.74405607 24.78727187 -37.08984375 26.78515625 C-37.08984375 27.85765625 -37.08984375 28.93015625 -37.08984375 30.03515625 C-37.08984375 32.78515625 -37.08984375 32.78515625 -38.08984375 34.78515625 C-38.74984375 34.78515625 -39.40984375 34.78515625 -40.08984375 34.78515625 C-40.08984375 32.47515625 -40.08984375 30.16515625 -40.08984375 27.78515625 C-40.91484375 28.73390625 -41.73984375 29.68265625 -42.58984375 30.66015625 C-43.05390625 31.19382813 -43.51796875 31.7275 -43.99609375 32.27734375 C-45.28556833 33.74452046 -45.28556833 33.74452046 -45.08984375 35.78515625 C-46.03859375 35.99140625 -46.98734375 36.19765625 -47.96484375 36.41015625 C-51.30440683 37.48258479 -51.30440683 37.48258479 -52.46484375 40.53515625 C-53.07650088 43.71577331 -53.24362819 46.55568301 -53.08984375 49.78515625 C-54.40984375 50.44515625 -55.72984375 51.10515625 -57.08984375 51.78515625 C-57.08984375 51.12515625 -57.08984375 50.46515625 -57.08984375 49.78515625 C-60.83510174 53.53041424 -60.77894324 57.76786534 -61.08984375 62.78515625 C-62.05921875 63.03265625 -63.02859375 63.28015625 -64.02734375 63.53515625 C-65.03796875 63.94765625 -66.04859375 64.36015625 -67.08984375 64.78515625 C-68.05861432 66.81759173 -68.05861432 66.81759173 -68.08984375 68.78515625 C-68.74984375 68.45515625 -69.40984375 68.12515625 -70.08984375 67.78515625 C-70.27734375 64.97265625 -70.27734375 64.97265625 -70.08984375 61.78515625 C-69.1073012 60.76799838 -68.10626489 59.76846091 -67.08984375 58.78515625 C-66.71859375 57.69203125 -66.34734375 56.59890625 -65.96484375 55.47265625 C-64.34763913 50.8919447 -61.81356915 47.14840808 -59.12695312 43.12475586 C-54.40802156 35.93919478 -50.33599879 28.38999221 -46.22729492 20.84399414 C-34.75288172 -0.02319818 -34.75288172 -0.02319818 -22.52734375 -4.52734375 C-13.84653016 -6.26350647 -7.52768714 -4.37590785 0 0 Z " fill="#F23C56" transform="translate(261.08984375,92.21484375)"/>
<path d="M0 0 C0.66 0.33 1.32 0.66 2 1 C2.40729228 3.32156597 2.74438677 5.6568787 3 8 C3.66 8 4.32 8 5 8 C5.33 9.98 5.66 11.96 6 14 C6.66 14 7.32 14 8 14 C8 17.3 8 20.6 8 24 C8.99 24 9.98 24 11 24 C11.33 26.64 11.66 29.28 12 32 C13.485 32.495 13.485 32.495 15 33 C15 34.98 15 36.96 15 39 C16.43640171 39.19573608 17.87419504 39.38127816 19.3125 39.5625 C20.11300781 39.66691406 20.91351563 39.77132812 21.73828125 39.87890625 C24.16817116 40.14755178 24.16817116 40.14755178 27 39 C27.495 40.98 27.495 40.98 28 43 C27.01 43.495 27.01 43.495 26 44 C25.01 43.505 25.01 43.505 24 43 C24.33 43.99 24.66 44.98 25 46 C24.505 47.175625 24.505 47.175625 24 48.375 C22.84338367 51.41111787 23.12201294 52.92704527 24 56 C24.99 56 25.98 56 27 56 C27.495 58.475 27.495 58.475 28 61 C28.66 60.67 29.32 60.34 30 60 C30.33 60.99 30.66 61.98 31 63 C30.67 63.66 30.34 64.32 30 65 C30.61875 64.835 31.2375 64.67 31.875 64.5 C34.67190707 64.05249487 37.11758297 63.96597385 39.9375 64 C43.74482472 64.04552855 47.25810039 63.78776834 51 63 C50.67 63.66 50.34 64.32 50 65 C51.65 64.67 53.3 64.34 55 64 C55 63.34 55 62.68 55 62 C56.375 60.375 56.375 60.375 58 59 C58.66 59 59.32 59 60 59 C61.50930183 55.6136749 61.50930183 55.6136749 62 52 C62.66 52 63.32 52 64 52 C64.66 50.68 65.32 49.36 66 48 C66.66 48 67.32 48 68 48 C67.49874344 54.5163353 64.8072021 60.32890467 60.06640625 64.83984375 C52.36617111 70.79333368 45.66591337 71.91386817 36 71 C29.32425588 69.26803355 24.61047621 64.72256494 21 59 C18.36391077 53.77816596 16.25964126 48.31794329 14.12841797 42.87597656 C12.90648705 39.76166539 11.66032721 36.65776573 10.41015625 33.5546875 C8.69749571 29.29880571 6.99193735 25.0402657 5.296875 20.77734375 C4.71969727 19.33270752 4.71969727 19.33270752 4.13085938 17.85888672 C3.36917858 15.93330767 2.62071066 14.00245574 1.88476562 12.06689453 C1.53607422 11.1592334 1.18738281 10.25157227 0.828125 9.31640625 C0.37034668 8.10319702 0.37034668 8.10319702 -0.09667969 6.86547852 C-0.85344477 4.81906602 -0.85344477 4.81906602 -3 4 C-3.25910156 4.69867188 -3.51820313 5.39734375 -3.78515625 6.1171875 C-5.11875927 9.28181461 -6.708756 12.15825224 -8.4375 15.125 C-9.03433594 16.15882813 -9.63117188 17.19265625 -10.24609375 18.2578125 C-11.69675131 20.52587844 -13.00171964 22.22782476 -15 24 C-14.67 21.36 -14.34 18.72 -14 16 C-13.34 16 -12.68 16 -12 16 C-11.896875 15.2575 -11.79375 14.515 -11.6875 13.75 C-10.94406435 10.77625741 -9.90193275 9.35839661 -8 7 C-7.690625 6.278125 -7.38125 5.55625 -7.0625 4.8125 C-6 3 -6 3 -4 2.25 C-2 2 -2 2 0 2 C0 1.34 0 0.68 0 0 Z " fill="#FAB245" transform="translate(242,168)"/>
<path d="M0 0 C2.0625 0.4375 2.0625 0.4375 4 1 C4 1.66 4 2.32 4 3 C4.99 3.33 5.98 3.66 7 4 C7.495 5.485 7.495 5.485 8 7 C8.99 7.66 9.98 8.32 11 9 C12.16216154 12.05482461 12.10513524 15.00972162 12.0625 18.25 C12.05347656 19.14203125 12.04445313 20.0340625 12.03515625 20.953125 C12.02355469 21.62859375 12.01195312 22.3040625 12 23 C11.34 23 10.68 23 10 23 C10.04640625 23.58007812 10.0928125 24.16015625 10.140625 24.7578125 C10.19476563 25.92957031 10.19476563 25.92957031 10.25 27.125 C10.29640625 27.89070313 10.3428125 28.65640625 10.390625 29.4453125 C10 32 10 32 8.0625 34.76171875 C5.48294785 38.81181104 5.22400631 42.00096151 4.75 46.6875 C3.47189588 56.43739364 0.17987599 64.44185602 -3.83789062 73.34179688 C-5.99152722 78.26801435 -7.89334731 83.29134207 -9.8125 88.3125 C-10.2252417 89.3837915 -10.6379834 90.45508301 -11.06323242 91.55883789 C-13.43852347 97.76530215 -15.72418025 103.99756648 -17.94140625 110.26171875 C-18.43558514 111.64745299 -18.92996844 113.03311436 -19.42456055 114.41870117 C-20.3813373 117.09962991 -21.31837957 119.78642845 -22.24536133 122.4777832 C-22.89347778 124.29862427 -22.89347778 124.29862427 -23.5546875 126.15625 C-23.93093262 127.23712891 -24.30717773 128.31800781 -24.69482422 129.43164062 C-26.17244862 132.33934894 -27.03430158 132.85748286 -30 134 C-30.99 134.99 -30.99 134.99 -32 136 C-31.67 133.69 -31.34 131.38 -31 129 C-30.34 129 -29.68 129 -29 129 C-29 128.34 -29 127.68 -29 127 C-30.485 127.495 -30.485 127.495 -32 128 C-32.33 127.34 -32.66 126.68 -33 126 C-31 124 -31 124 -28.375 123.875 C-27.59125 123.91625 -26.8075 123.9575 -26 124 C-25.90912109 122.91332031 -25.90912109 122.91332031 -25.81640625 121.8046875 C-25.38516567 116.82883467 -24.92952359 111.91319609 -24 107 C-21.525 106.505 -21.525 106.505 -19 106 C-18.66179834 104.4176994 -18.32964061 102.83410625 -18 101.25 C-17.814375 100.36828125 -17.62875 99.4865625 -17.4375 98.578125 C-16.88846325 95.77856035 -16.88846325 95.77856035 -17 92 C-17 90.68 -17 89.36 -17 88 C-16.34 88 -15.68 88 -15 88 C-15 86.68 -15 85.36 -15 84 C-13.68 84 -12.36 84 -11 84 C-10.79503906 82.80761719 -10.59007812 81.61523438 -10.37890625 80.38671875 C-10.10689193 78.82029147 -9.83474985 77.25388636 -9.5625 75.6875 C-9.42779297 74.90181641 -9.29308594 74.11613281 -9.15429688 73.30664062 C-9.02216797 72.54931641 -8.89003906 71.79199219 -8.75390625 71.01171875 C-8.63345947 70.31522217 -8.5130127 69.61872559 -8.38891602 68.90112305 C-8 67 -8 67 -7 64 C-6.34 64 -5.68 64 -5 64 C-5.33 62.68 -5.66 61.36 -6 60 C-4.02 60 -2.04 60 0 60 C0.02701408 57.89590361 0.04640223 55.79170822 0.0625 53.6875 C0.07410156 52.51574219 0.08570313 51.34398437 0.09765625 50.13671875 C0.14899898 46.96940805 0.14899898 46.96940805 -1 44 C-0.34 44 0.32 44 1 44 C2.73662334 40.77484237 3.8905928 37.48670834 5 34 C5.66 34 6.32 34 7 34 C7 28.72 7 23.44 7 18 C7.66 18 8.32 18 9 18 C9 16.02 9 14.04 9 12 C6.83125748 12.50603992 5.00032373 12.99983813 3 14 C2.34 13.34 1.68 12.68 1 12 C0.34 12 -0.32 12 -1 12 C-1.02687279 10.18757948 -1.04633715 8.37504767 -1.0625 6.5625 C-1.07410156 5.55316406 -1.08570313 4.54382813 -1.09765625 3.50390625 C-1 1 -1 1 0 0 Z " fill="#EAA745" transform="translate(337,84)"/>
<path d="M0 0 C0.99 0.33 1.98 0.66 3 1 C3.8871292 3.65248665 4.58044327 6.15859828 5.1875 8.875 C5.36474609 9.60847656 5.54199219 10.34195313 5.72460938 11.09765625 C6.43871239 14.12501188 7 16.88012933 7 20 C7.66 20 8.32 20 9 20 C9 22.64 9 25.28 9 28 C9.99 28 10.98 28 12 28 C12.33 30.64 12.66 33.28 13 36 C14.1446875 35.8453125 14.1446875 35.8453125 15.3125 35.6875 C16.199375 35.790625 17.08625 35.89375 18 36 C20.24243223 38.86103423 21 40.34076304 21 44 C22.32 44 23.64 44 25 44 C24.67 45.32 24.34 46.64 24 48 C22.68 47.67 21.36 47.34 20 47 C20.71730432 49.02455765 20.71730432 49.02455765 22 51 C28.91453244 53.50746781 38.74502656 52.24280804 45.4375 49.6875 C48.07929554 48.10625602 48.07929554 48.10625602 50 45.75 C50.66 45.1725 51.32 44.595 52 44 C55.25 44.25 55.25 44.25 58 45 C54.60756478 51.92056786 50.87986641 55.46269444 43.6875 58.3125 C34.49887845 60.02563283 27.88614813 59.312197 20 54 C7.22132055 44.30189506 3.50164333 17.55629654 0 3 C0 2.01 0 1.02 0 0 Z " fill="#DF9C51" transform="translate(149,180)"/>
<path d="M0 0 C-0.928125 0.53625 -1.85625 1.0725 -2.8125 1.625 C-8.2779271 5.69727901 -9.40156963 10.88411339 -10.6875 17.375 C-10.93886719 18.62023437 -11.19023437 19.86546875 -11.44921875 21.1484375 C-11.72185547 22.55996094 -11.72185547 22.55996094 -12 24 C-11.34 24 -10.68 24 -10 24 C-10 24.99 -10 25.98 -10 27 C-9.01 26.67 -8.02 26.34 -7 26 C-6.92572162 29.34252724 -6.93453047 31.8035914 -8 35 C-7.19830281 38.3301268 -6.25235428 41.42519303 -4.875 44.5625 C-3.82678617 47.48252424 -3.85679102 49.92100701 -4 53 C-3.34 53 -2.68 53 -2 53 C-1.67 56.96 -1.34 60.92 -1 65 C-0.01 65.33 0.98 65.66 2 66 C2.09796875 66.76183594 2.1959375 67.52367187 2.296875 68.30859375 C3.04063868 73.44441022 3.75909543 77.94096882 6.1875 82.5625 C8.758313 87.7230988 7.95178657 92.46515417 7 98 C4.98381008 94.97571513 4.17277023 92.66399061 3.15234375 89.19921875 C2.79857666 88.0083667 2.44480957 86.81751465 2.08032227 85.59057617 C1.69926158 84.2895859 1.3183239 82.9885596 0.9375 81.6875 C0.54208142 80.34921854 0.14615923 79.01108579 -0.25024414 77.6730957 C-0.86825281 75.58660216 -1.48578566 73.49997747 -2.10136414 71.4127655 C-3.55461284 66.48752887 -5.03200092 61.57004673 -6.5234375 56.65625 C-6.93225824 55.30641101 -7.34103167 53.95655769 -7.74975586 52.60668945 C-8.52405454 50.04974072 -9.30136275 47.49377212 -10.08032227 44.93823242 C-17.64074792 19.89120168 -17.64074792 19.89120168 -12.20703125 9.04296875 C-5.29889299 -2.64944649 -5.29889299 -2.64944649 0 0 Z " fill="#DD4783" transform="translate(142,82)"/>
<path d="M0 0 C0.76183594 -0.01417969 1.52367187 -0.02835937 2.30859375 -0.04296875 C6.27961065 0.36307977 9.03036837 2.14894204 11.5625 5.1875 C11.5625 5.8475 11.5625 6.5075 11.5625 7.1875 C12.8825 7.1875 14.2025 7.1875 15.5625 7.1875 C19.20843763 10.72620417 20.57482296 14.24911478 21.5625 19.1875 C21.1875 21.625 21.1875 21.625 20.5625 23.1875 C19.9025 22.8575 19.2425 22.5275 18.5625 22.1875 C18.5625 20.8675 18.5625 19.5475 18.5625 18.1875 C17.9025 18.1875 17.2425 18.1875 16.5625 18.1875 C16.294375 17.548125 16.02625 16.90875 15.75 16.25 C14.67582248 13.85618314 14.67582248 13.85618314 11.5625 13.1875 C11.5625 12.5275 11.5625 11.8675 11.5625 11.1875 C10.5725 10.8575 9.5825 10.5275 8.5625 10.1875 C8.0675 8.7025 8.0675 8.7025 7.5625 7.1875 C5.2525 7.1875 2.9425 7.1875 0.5625 7.1875 C0.5625 6.5275 0.5625 5.8675 0.5625 5.1875 C-7.3575 6.6725 -7.3575 6.6725 -15.4375 8.1875 C-15.7675 9.5075 -16.0975 10.8275 -16.4375 12.1875 C-17.4275 12.991875 -18.4175 13.79625 -19.4375 14.625 C-22.58162597 16.87472885 -22.58162597 16.87472885 -23.375 19.875 C-23.61999522 22.21518893 -23.61999522 22.21518893 -22.4375 24.1875 C-22.75606451 26.18990549 -23.09171232 28.18961562 -23.4375 30.1875 C-23.4375 31.26 -23.4375 32.3325 -23.4375 33.4375 C-23.4375 36.1875 -23.4375 36.1875 -24.4375 38.1875 C-25.0975 38.1875 -25.7575 38.1875 -26.4375 38.1875 C-26.4375 35.8775 -26.4375 33.5675 -26.4375 31.1875 C-27.2625 32.13625 -28.0875 33.085 -28.9375 34.0625 C-29.4015625 34.59617188 -29.865625 35.12984375 -30.34375 35.6796875 C-31.63322458 37.14686421 -31.63322458 37.14686421 -31.4375 39.1875 C-32.4275 39.1875 -33.4175 39.1875 -34.4375 39.1875 C-34.4375 38.1975 -34.4375 37.2075 -34.4375 36.1875 C-33.7775 36.1875 -33.1175 36.1875 -32.4375 36.1875 C-32.1075 34.5375 -31.7775 32.8875 -31.4375 31.1875 C-30.7775 31.1875 -30.1175 31.1875 -29.4375 31.1875 C-29.4375 30.1975 -29.4375 29.2075 -29.4375 28.1875 C-28.7775 28.1875 -28.1175 28.1875 -27.4375 28.1875 C-27.5303125 26.9190625 -27.5303125 26.9190625 -27.625 25.625 C-27.39734372 21.45130157 -26.23542186 18.93317053 -24.4375 15.1875 C-23.7775 15.1875 -23.1175 15.1875 -22.4375 15.1875 C-22.210625 14.465625 -21.98375 13.74375 -21.75 13 C-18.78972147 6.656546 -13.61349129 3.82327871 -7.4375 1.1875 C-4.66697819 0.26399273 -2.87061242 0.02420415 0 0 Z " fill="#F60B75" transform="translate(247.4375,88.8125)"/>
<path d="M0 0 C1.19367188 -0.02578125 2.38734375 -0.0515625 3.6171875 -0.078125 C7.46822413 0.2821056 9.85407009 1.21791031 13.125 3.25 C14 5.4375 14 5.4375 14.125 7.25 C12.145 8.24 12.145 8.24 10.125 9.25 C10.125 8.59 10.125 7.93 10.125 7.25 C9.5475 7.415 8.97 7.58 8.375 7.75 C6.125 8.25 6.125 8.25 2.125 8.25 C2.125 7.26 2.125 6.27 2.125 5.25 C1.465 4.92 0.805 4.59 0.125 4.25 C0.125 5.57 0.125 6.89 0.125 8.25 C-1.195 7.92 -2.515 7.59 -3.875 7.25 C-3.545 6.26 -3.215 5.27 -2.875 4.25 C-3.535 3.92 -4.195 3.59 -4.875 3.25 C-7.07852938 7.18487389 -8.875 11.7001079 -8.875 16.25 C-12.835 16.745 -12.835 16.745 -16.875 17.25 C-16.875 19.56 -16.875 21.87 -16.875 24.25 C-17.535 24.58 -18.195 24.91 -18.875 25.25 C-19.535 24.92 -20.195 24.59 -20.875 24.25 C-20.875 24.91 -20.875 25.57 -20.875 26.25 C-21.535 26.25 -22.195 26.25 -22.875 26.25 C-22.09096031 18.80162298 -20.89923746 11.71752449 -16.875 5.25 C-11.2060528 0.78721178 -7.08887075 0.0914693 0 0 Z " fill="#F43884" transform="translate(152.875,79.75)"/>
<path d="M0 0 C6.73451638 6.73451638 8.98393455 13.80916643 9.01171875 23.21875 C8.00951304 34.43224048 2.40623437 45.91158393 -1.6875 56.3125 C-3.22591392 50.83460309 -2.0845653 45.76105467 -0.6875 40.3125 C0.61831356 38.2944245 1.94886792 36.29196592 3.3125 34.3125 C3.92277406 31.32066863 4.17705081 28.36010681 4.3125 25.3125 C4.9725 25.3125 5.6325 25.3125 6.3125 25.3125 C6.05799519 23.01896253 5.78338853 20.72764797 5.5 18.4375 C5.34917969 17.16132812 5.19835937 15.88515625 5.04296875 14.5703125 C4.64401918 11.03479684 4.64401918 11.03479684 1.3125 9.3125 C0.8175 7.8275 0.8175 7.8275 0.3125 6.3125 C-1.9322471 3.50656612 -4.3345016 2.49058052 -7.6875 1.3125 C-7.6875 0.6525 -7.6875 -0.0075 -7.6875 -0.6875 C-13.2975 -0.6875 -18.9075 -0.6875 -24.6875 -0.6875 C-25.0175 0.3025 -25.3475 1.2925 -25.6875 2.3125 C-28.9875 2.9725 -32.2875 3.6325 -35.6875 4.3125 C-34.53488733 0.85466198 -33.88218242 0.50631534 -30.875 -1.3125 C-30.18792969 -1.73789063 -29.50085938 -2.16328125 -28.79296875 -2.6015625 C-19.64784366 -7.31834316 -8.36309719 -5.25124707 0 0 Z " fill="#EBB46E" transform="translate(342.6875,81.6875)"/>
<path d="M0 0 C2.0625 0.4375 2.0625 0.4375 4 1 C4 1.66 4 2.32 4 3 C4.99 3.33 5.98 3.66 7 4 C7.33 4.99 7.66 5.98 8 7 C8.99 7.66 9.98 8.32 11 9 C12.16216154 12.05482461 12.10513524 15.00972162 12.0625 18.25 C12.05347656 19.14203125 12.04445313 20.0340625 12.03515625 20.953125 C12.02355469 21.62859375 12.01195312 22.3040625 12 23 C11.34 23 10.68 23 10 23 C10.04640625 23.58007812 10.0928125 24.16015625 10.140625 24.7578125 C10.17671875 25.53898437 10.2128125 26.32015625 10.25 27.125 C10.29640625 27.89070313 10.3428125 28.65640625 10.390625 29.4453125 C10 32 10 32 8.09375 34.78125 C5.57465491 38.65388872 4.94105816 41.87905693 4.25 46.375 C4.12496094 47.11105469 3.99992187 47.84710938 3.87109375 48.60546875 C3.56786412 50.40152115 3.28210552 52.20050871 3 54 C2.01 54 1.02 54 0 54 C0.020625 52.906875 0.04125 51.81375 0.0625 50.6875 C0.18544452 47.05615809 0.18544452 47.05615809 -1 44 C-0.34 44 0.32 44 1 44 C2.73662334 40.77484237 3.8905928 37.48670834 5 34 C5.66 34 6.32 34 7 34 C7 28.72 7 23.44 7 18 C7.66 18 8.32 18 9 18 C9 16.02 9 14.04 9 12 C6.83125748 12.50603992 5.00032373 12.99983813 3 14 C2.34 13.34 1.68 12.68 1 12 C0.34 12 -0.32 12 -1 12 C-1.02687279 10.18757948 -1.04633715 8.37504767 -1.0625 6.5625 C-1.07410156 5.55316406 -1.08570313 4.54382813 -1.09765625 3.50390625 C-1 1 -1 1 0 0 Z " fill="#F6921F" transform="translate(337,84)"/>
<path d="M0 0 C0.66 0.33 1.32 0.66 2 1 C2.40729228 3.32156597 2.74438677 5.6568787 3 8 C3.66 8 4.32 8 5 8 C5.33 9.98 5.66 11.96 6 14 C6.66 14 7.32 14 8 14 C8 17.3 8 20.6 8 24 C8.99 24 9.98 24 11 24 C11.33 26.64 11.66 29.28 12 32 C13.485 32.495 13.485 32.495 15 33 C15 34.98 15 36.96 15 39 C16.485 39.495 16.485 39.495 18 40 C17.34 41.65 16.68 43.3 16 45 C14.43271783 42.64907674 13.44325093 40.84784175 12.42773438 38.27880859 C11.98717712 37.17283829 11.98717712 37.17283829 11.53771973 36.04452515 C11.22620972 35.25381622 10.91469971 34.4631073 10.59375 33.6484375 C9.9259702 31.97648702 9.2579956 30.30461433 8.58984375 28.6328125 C7.54047349 25.99583227 6.49328869 23.35802671 5.44970703 20.71875 C4.44116982 18.17206328 3.42428108 15.62884099 2.40625 13.0859375 C2.09473999 12.29118011 1.78322998 11.49642273 1.46228027 10.67758179 C0.1055672 6.61786177 0.1055672 6.61786177 -3 4 C-3.25910156 4.69867188 -3.51820313 5.39734375 -3.78515625 6.1171875 C-5.11875927 9.28181461 -6.708756 12.15825224 -8.4375 15.125 C-9.03433594 16.15882813 -9.63117188 17.19265625 -10.24609375 18.2578125 C-11.69675131 20.52587844 -13.00171964 22.22782476 -15 24 C-14.67 21.36 -14.34 18.72 -14 16 C-13.34 16 -12.68 16 -12 16 C-11.896875 15.2575 -11.79375 14.515 -11.6875 13.75 C-10.94406435 10.77625741 -9.90193275 9.35839661 -8 7 C-7.690625 6.278125 -7.38125 5.55625 -7.0625 4.8125 C-6 3 -6 3 -4 2.25 C-2 2 -2 2 0 2 C0 1.34 0 0.68 0 0 Z " fill="#E59070" transform="translate(242,168)"/>
<path d="M0 0 C0.99 0 1.98 0 3 0 C2.67 3.3 2.34 6.6 2 10 C2.66 10.33 3.32 10.66 4 11 C3.67 12.65 3.34 14.3 3 16 C3.99 16.33 4.98 16.66 6 17 C6.12375 18.134375 6.2475 19.26875 6.375 20.4375 C6.58125 21.613125 6.7875 22.78875 7 24 C7.66 24.33 8.32 24.66 9 25 C9.37890625 27.6171875 9.37890625 27.6171875 9.5625 30.875 C9.75886324 34.20115284 9.94375608 36.83126825 11 40 C9 43 9 43 6 45 C5.63837971 46.32594105 5.30271961 47.65938457 5 49 C4.01 49.495 4.01 49.495 3 50 C2.67997546 43.33874851 2.80643531 38.97057747 6 33 C5.94607807 29.74961511 5.94607807 29.74961511 5 27 C4.34 26.67 3.68 26.34 3 26 C0.79268263 22.68902394 0.82245874 19.90590763 1 16 C0.34 15.67 -0.32 15.34 -1 15 C-2.39356576 9.66174407 -2.21841738 5.08931047 0 0 Z " fill="#FC3467" transform="translate(229,128)"/>
<path d="M0 0 C4.95 0 9.9 0 15 0 C15 0.33 15 0.66 15 1 C11.37 1.33 7.74 1.66 4 2 C3.731875 3.051875 3.46375 4.10375 3.1875 5.1875 C2.11812009 8.62077235 1.21852976 11.18417377 -1 14 C-2.32 14 -3.64 14 -5 14 C-5.33 14.66 -5.66 15.32 -6 16 C-6.78375 16.12375 -7.5675 16.2475 -8.375 16.375 C-11.63310119 17.15073838 -12.16750079 18.31019122 -14 21 C-13.54265159 9.4290853 -13.54265159 9.4290853 -9 5 C-5.99113787 4.22703369 -3.09975694 4.01324682 0 4 C0 2.68 0 1.36 0 0 Z " fill="#F39322" transform="translate(317,80)"/>
<path d="M0 0 C3.31553523 3.31553523 4.51147057 6.37502722 6.06640625 10.66796875 C6.34596664 11.42161209 6.62552704 12.17525543 6.91355896 12.95173645 C7.50319229 14.5465345 8.08879834 16.14282651 8.6706543 17.74047852 C9.55414771 20.16458323 10.45073999 22.58351361 11.34960938 25.00195312 C11.92266233 26.55700175 12.49495222 28.11233183 13.06640625 29.66796875 C13.33103165 30.38284958 13.59565704 31.09773041 13.86830139 31.83427429 C15.56226005 36.50443674 17.01183804 41.12588207 18 46 C16.625 48 16.625 48 15 49 C15 46.69 15 44.38 15 42 C14.34 42 13.68 42 13 42 C13 39.03 13 36.06 13 33 C12.01 33 11.02 33 10 33 C7.84705349 27.71169451 5.72066106 22.44876003 4 17 C2.35 17.33 0.7 17.66 -1 18 C-1.33 15.36 -1.66 12.72 -2 10 C-1.34 10 -0.68 10 0 10 C0 10.66 0 11.32 0 12 C0.66 12 1.32 12 2 12 C1.34 8.04 0.68 4.08 0 0 Z " fill="#F6306F" transform="translate(266,99)"/>
<path d="M0 0 C2.548237 1.85903411 4.71236817 3.81183043 7 6 C6 8 6 8 4 9 C4 7.68 4 6.36 4 5 C2.68 5 1.36 5 0 5 C0 4.34 0 3.68 0 3 C-2.475 2.01 -2.475 2.01 -5 1 C-5 0.34 -5 -0.32 -5 -1 C-12.96867282 -1.54538445 -18.82866962 -0.50257491 -26 3 C-26.73089844 3.32355469 -27.46179688 3.64710937 -28.21484375 3.98046875 C-30.77907757 5.44494365 -31.067448 7.26895486 -32 10 C-32.99 11.485 -32.99 11.485 -34 13 C-34.66 13 -35.32 13 -36 13 C-36.2475 14.0725 -36.495 15.145 -36.75 16.25 C-38.00155428 20.00466284 -38.92836198 21.6002828 -42 24 C-42.66 24 -43.32 24 -44 24 C-42.6718161 19.42968513 -40.84636275 15.87749738 -38.1875 11.9375 C-37.52105469 10.93589844 -36.85460937 9.93429688 -36.16796875 8.90234375 C-32.98630715 4.64293011 -29.79942221 1.03114044 -24.9375 -1.25 C-24.28652344 -1.56453125 -23.63554687 -1.8790625 -22.96484375 -2.203125 C-14.78735765 -5.51964024 -7.61429775 -4.01392693 0 0 Z " fill="#D35392" transform="translate(259,91)"/>
<path d="M0 0 C0.66 0 1.32 0 2 0 C1.49874344 6.5163353 -1.1927979 12.32890467 -5.93359375 16.83984375 C-13.60913934 22.77424478 -20.35586096 23.9644139 -30 23 C-34.43519905 21.62332506 -37.37063412 19.94404882 -40 16 C-39.4225 16.309375 -38.845 16.61875 -38.25 16.9375 C-34.69752698 18.6150567 -31.5844624 19.1256033 -27.671875 19.09765625 C-26.87265625 19.09443359 -26.0734375 19.09121094 -25.25 19.08789062 C-24.425 19.07951172 -23.6 19.07113281 -22.75 19.0625 C-21.90953125 19.05798828 -21.0690625 19.05347656 -20.203125 19.04882812 C-18.13538599 19.03707961 -16.06768376 19.01914522 -14 19 C-14 18.34 -14 17.68 -14 17 C-13.01 16.34 -12.02 15.68 -11 15 C-10.484375 14.29875 -9.96875 13.5975 -9.4375 12.875 C-8.963125 12.25625 -8.48875 11.6375 -8 11 C-7.34 11 -6.68 11 -6 11 C-4.49069817 7.6136749 -4.49069817 7.6136749 -4 4 C-3.34 4 -2.68 4 -2 4 C-1.34 2.68 -0.68 1.36 0 0 Z " fill="#F2B257" transform="translate(308,216)"/>
<path d="M0 0 C-0.99 1.485 -0.99 1.485 -2 3 C-2.45139459 5.0492094 -2.45139459 5.0492094 -2.625 7.1875 C-2.74875 8.445625 -2.8725 9.70375 -3 11 C-5.64 11.33 -8.28 11.66 -11 12 C-11 14.31 -11 16.62 -11 19 C-11.66 19.33 -12.32 19.66 -13 20 C-13.66 19.67 -14.32 19.34 -15 19 C-15 19.66 -15 20.32 -15 21 C-15.66 21 -16.32 21 -17 21 C-15.50949731 6.84022448 -15.50949731 6.84022448 -10.25 2.5625 C-6.75113077 0.1554312 -4.31438058 -0.64715709 0 0 Z " fill="#F83585" transform="translate(147,85)"/>
<path d="M0 0 C0.99 0.495 0.99 0.495 2 1 C2 2.98 2 4.96 2 7 C2.66 7 3.32 7 4 7 C4.33 10.96 4.66 14.92 5 19 C5.99 19.33 6.98 19.66 8 20 C8.14695313 21.14275391 8.14695313 21.14275391 8.296875 22.30859375 C9.04063868 27.44441022 9.75909543 31.94096882 12.1875 36.5625 C14.758313 41.7230988 13.95178657 46.46515417 13 52 C9.77080366 47.15620548 8.54790569 41.60436956 6.875 36.0625 C6.31619141 34.30196289 6.31619141 34.30196289 5.74609375 32.50585938 C3.42569863 24.81795685 2.48710197 18.02161496 3 10 C2.34 10 1.68 10 1 10 C-0.60725635 6.78548731 -0.05748185 3.56387464 0 0 Z " fill="#DB8570" transform="translate(136,128)"/>
<path d="M0 0 C2.01338795 2.02355657 2.8039973 3.32323205 4 6 C3.75 8.875 3.75 8.875 3 11 C1.02 11 -0.96 11 -3 11 C-3.33 10.34 -3.66 9.68 -4 9 C-5.32 9 -6.64 9 -8 9 C-8.33 7.35 -8.66 5.7 -9 4 C-7.68 3.34 -6.36 2.68 -5 2 C-5 0.68 -5 -0.64 -5 -2 C-10.24955168 -4.15758273 -14.80810284 -4.24042211 -20.375 -4.125 C-21.62216797 -4.11146484 -21.62216797 -4.11146484 -22.89453125 -4.09765625 C-24.92981337 -4.0742622 -26.96494564 -4.03839725 -29 -4 C-21.38459053 -11.61540947 -7.01097087 -5.58281014 0 0 Z " fill="#ED3D7E" transform="translate(171,85)"/>
<path d="M0 0 C0.99 0.33 1.98 0.66 3 1 C2.67 1.99 2.34 2.98 2 4 C1.34 4 0.68 4 0 4 C0 4.66 0 5.32 0 6 C-1.32 6.33 -2.64 6.66 -4 7 C-4.33 8.32 -4.66 9.64 -5 11 C-6.87387477 11.3396019 -8.74916697 11.67138691 -10.625 12 C-11.66914063 12.185625 -12.71328125 12.37125 -13.7890625 12.5625 C-19.92630375 13.39871779 -23.56243484 13.10718009 -29 10 C-29 9.34 -29 8.68 -29 8 C-28.154375 8.02320313 -27.30875 8.04640625 -26.4375 8.0703125 C-16.96090459 8.22107652 -8.50578903 8.12607944 -1.1875 1.3125 C-0.795625 0.879375 -0.40375 0.44625 0 0 Z " fill="#F58C20" transform="translate(201,224)"/>
<path d="M0 0 C0.33 0 0.66 0 1 0 C1.28999065 8.55472404 1.28999065 8.55472404 -1 13 C-1.33 13.33 -1.66 13.66 -2 14 C-1.938125 15.299375 -1.938125 15.299375 -1.875 16.625 C-2.02544099 20.68690672 -3.31985184 23.31659826 -5 27 C-5.350625 28.258125 -5.70125 29.51625 -6.0625 30.8125 C-7 34 -7 34 -9 36 C-10.03842565 38.31648799 -11.0421975 40.64903024 -12 43 C-12.66 43 -13.32 43 -14 43 C-15 40 -15 40 -13.78515625 37.546875 C-13.21667969 36.62390625 -12.64820313 35.7009375 -12.0625 34.75 C-9.38756313 30.09820448 -8.29333521 27.29998596 -9 22 C-8.34 22 -7.68 22 -7 22 C-6.82984375 21.41734375 -6.6596875 20.8346875 -6.484375 20.234375 C-4.47499877 13.43669796 -2.2725685 6.71388257 0 0 Z " fill="#FA9F43" transform="translate(292,120)"/>
<path d="M0 0 C0.99 0.33 1.98 0.66 3 1 C8.17264536 16.51793607 -0.37249561 32.7022475 -6 47 C-7.53841392 41.52210309 -6.3970653 36.44855467 -5 31 C-3.69418644 28.9819245 -2.36363208 26.97946592 -1 25 C-0.38972594 22.00816863 -0.13544919 19.04760681 0 16 C0.66 16 1.32 16 2 16 C1.34 10.72 0.68 5.44 0 0 Z " fill="#E8B46A" transform="translate(347,91)"/>
<path d="M0 0 C1.41623216 -0.05447047 2.83308191 -0.09300508 4.25 -0.125 C5.03890625 -0.14820312 5.8278125 -0.17140625 6.640625 -0.1953125 C10.04458096 0.08647193 12.18546042 1.30182322 14.75 3.5 C16 5 16 5 16 7 C17.32 7 18.64 7 20 7 C23.64593763 10.53870417 25.01232296 14.06161478 26 19 C25.625 21.4375 25.625 21.4375 25 23 C24.34 22.67 23.68 22.34 23 22 C23 20.68 23 19.36 23 18 C22.34 18 21.68 18 21 18 C20.731875 17.360625 20.46375 16.72125 20.1875 16.0625 C19.11332248 13.66868314 19.11332248 13.66868314 16 13 C16 12.34 16 11.68 16 11 C15.01 10.67 14.02 10.34 13 10 C12.3125 7.9375 12.3125 7.9375 12 6 C11.34 6 10.68 6 10 6 C10 5.01 10 4.02 10 3 C9.01 3 8.02 3 7 3 C7 2.34 7 1.68 7 1 C4.69 1 2.38 1 0 1 C0 0.67 0 0.34 0 0 Z " fill="#EA1A70" transform="translate(243,89)"/>
<path d="M0 0 C0.66 0 1.32 0 2 0 C2 1.65 2 3.3 2 5 C1.34 5 0.68 5 0 5 C0 5.99 0 6.98 0 8 C-0.66 8 -1.32 8 -2 8 C-2.33 9.65 -2.66 11.3 -3 13 C-3.66 13 -4.32 13 -5 13 C-5 13.99 -5 14.98 -5 16 C-6.29103643 17.3743291 -7.6256709 18.70896357 -9 20 C-9.33 20.66 -9.66 21.32 -10 22 C-11.32 22 -12.64 22 -14 22 C-12.40376856 17.60616294 -10.21975667 13.71004193 -7.875 9.6875 C-7.50246094 9.04232422 -7.12992188 8.39714844 -6.74609375 7.73242188 C-5.83367787 6.15324055 -4.91724491 4.57638136 -4 3 C-3.01 3 -2.02 3 -1 3 C-0.67 2.01 -0.34 1.02 0 0 Z " fill="#E91772" transform="translate(218,112)"/>
<path d="M0 0 C0.66 0 1.32 0 2 0 C2.66396398 3.3198199 3.13701405 6.62027062 3.3125 10 C3.34988281 10.61875 3.38726562 11.2375 3.42578125 11.875 C3 14 3 14 1.08984375 16.7265625 C-1.40155409 20.62897631 -2.05725712 23.86809633 -2.75 28.375 C-2.87503906 29.11105469 -3.00007813 29.84710938 -3.12890625 30.60546875 C-3.43213588 32.40152115 -3.71789448 34.20050871 -4 36 C-4.99 36 -5.98 36 -7 36 C-6.979375 34.906875 -6.95875 33.81375 -6.9375 32.6875 C-6.81455548 29.05615809 -6.81455548 29.05615809 -8 26 C-7.34 26 -6.68 26 -6 26 C-4.26337666 22.77484237 -3.1094072 19.48670834 -2 16 C-1.34 16 -0.68 16 0 16 C0 10.72 0 5.44 0 0 Z " fill="#F19529" transform="translate(344,102)"/>
<path d="M0 0 C2.12508244 3.18762365 2.5020163 5.26512223 3 9 C3.99 9 4.98 9 6 9 C6 11.97 6 14.94 6 18 C6.66 18 7.32 18 8 18 C7.67 18.99 7.34 19.98 7 21 C5.02 21 3.04 21 1 21 C1 18.36 1 15.72 1 13 C0.34 12.67 -0.32 12.34 -1 12 C-1.02698189 10.37509046 -1.04638757 8.75005367 -1.0625 7.125 C-1.07410156 6.22007812 -1.08570313 5.31515625 -1.09765625 4.3828125 C-1 2 -1 2 0 0 Z " fill="#F66060" transform="translate(273,123)"/>
<path d="M0 0 C0.99 0.33 1.98 0.66 3 1 C3.8871292 3.65248665 4.58044327 6.15859828 5.1875 8.875 C5.36474609 9.60847656 5.54199219 10.34195313 5.72460938 11.09765625 C6.43871239 14.12501188 7 16.88012933 7 20 C7.66 20 8.32 20 9 20 C9 22.64 9 25.28 9 28 C9.99 28 10.98 28 12 28 C12 31.96 12 35.92 12 40 C9.73486825 36.60230238 8.74015003 33.24804053 7.6171875 29.375 C7.39805695 28.63169434 7.17892639 27.88838867 6.95315552 27.12255859 C6.49183173 25.55313922 6.03305833 23.98296822 5.57666016 22.41210938 C4.87704313 20.00702371 4.1676535 17.60497903 3.45703125 15.203125 C3.00983012 13.67725512 2.56319625 12.15121884 2.1171875 10.625 C1.90472382 9.90618652 1.69226013 9.18737305 1.47335815 8.44677734 C0.63033207 5.52810792 0 3.05532342 0 0 Z " fill="#DC995F" transform="translate(149,180)"/>
<path d="M0 0 C0.99 0.33 1.98 0.66 3 1 C3.94921875 4.16015625 3.94921875 4.16015625 4.6875 8.0625 C4.93886719 9.35285156 5.19023437 10.64320312 5.44921875 11.97265625 C5.63097656 12.97167969 5.81273437 13.97070312 6 15 C6.66 15 7.32 15 8 15 C8.33 19.62 8.66 24.24 9 29 C9.66 29 10.32 29 11 29 C11 31.97 11 34.94 11 38 C8.79367551 34.69051327 7.9482052 31.8820956 6.8359375 28.06640625 C6.63900299 27.39206039 6.44206848 26.71771454 6.23916626 26.02293396 C5.8248463 24.59896002 5.41315139 23.17422001 5.00390625 21.7487793 C4.37764348 19.57168959 3.74020116 17.39809651 3.1015625 15.22460938 C2.69984294 13.83873799 2.29877929 12.45267627 1.8984375 11.06640625 C1.53411621 9.80771729 1.16979492 8.54902832 0.79443359 7.25219727 C0 4 0 4 0 0 Z " fill="#DD718F" transform="translate(128,109)"/>
<path d="M0 0 C0.33 0.66 0.66 1.32 1 2 C0.09130859 3.93603516 0.09130859 3.93603516 -1.3515625 6.2890625 C-1.87363281 7.14886719 -2.39570313 8.00867188 -2.93359375 8.89453125 C-3.49175781 9.79558594 -4.04992187 10.69664062 -4.625 11.625 C-5.15996094 12.50285156 -5.69492188 13.38070312 -6.24609375 14.28515625 C-9.45950884 19.54702574 -12.7246655 24.77651115 -16 30 C-18 27 -18 27 -18 25 C-17.01 25 -16.02 25 -15 25 C-15 23.35 -15 21.7 -15 20 C-14.34 20 -13.68 20 -13 20 C-12.36665296 18.73330592 -11.74069468 17.46286756 -11.125 16.1875 C-10 14 -10 14 -8.4375 11.6875 C-6.71021218 8.45822277 -6.35494426 5.62043143 -6 2 C-4.7934375 1.7834375 -4.7934375 1.7834375 -3.5625 1.5625 C-1.07896294 1.25864751 -1.07896294 1.25864751 0 0 Z " fill="#E59975" transform="translate(226,192)"/>
<path d="M0 0 C0 11.89685838 -6.03630267 23.98950805 -12 34 C-13 32 -13 32 -12.35083008 29.48144531 C-11.18022506 26.06768726 -10.00699133 22.65549296 -8.8125 19.25 C-8.41224609 18.06921875 -8.01199219 16.8884375 -7.59960938 15.671875 C-5.60829698 9.93999361 -3.7555042 4.8001387 0 0 Z " fill="#EEC387" transform="translate(306,86)"/>
<path d="M0 0 C0.33 0.66 0.66 1.32 1 2 C1.763125 1.896875 2.52625 1.79375 3.3125 1.6875 C4.199375 1.790625 5.08625 1.89375 6 2 C8.24243223 4.86103423 9 6.34076304 9 10 C10.32 10 11.64 10 13 10 C12.67 11.32 12.34 12.64 12 14 C11.01 14 10.02 14 9 14 C9 13.34 9 12.68 9 12 C7.68 12.33 6.36 12.66 5 13 C3.02 9.535 3.02 9.535 1 6 C0.67 6 0.34 6 0 6 C0 4.02 0 2.04 0 0 Z " fill="#F48D20" transform="translate(161,214)"/>
<path d="M0 0 C2.41276856 2.41276856 2.8306806 4.17218155 3.75 7.4375 C4.03359375 8.40558594 4.3171875 9.37367188 4.609375 10.37109375 C5 13 5 13 3 16 C2.01 16.66 1.02 17.32 0 18 C-0.36162029 19.32594105 -0.69728039 20.65938457 -1 22 C-1.66 22.33 -2.32 22.66 -3 23 C-3.3174766 16.39178332 -3.28765094 11.8903746 0 6 C0.25196823 2.74899636 0.25196823 2.74899636 0 0 Z " fill="#FA2F60" transform="translate(235,155)"/>
<path d="M0 0 C2.1491917 3.22378756 3.024994 5.98414648 4.125 9.6875 C4.47820312 10.86699219 4.83140625 12.04648438 5.1953125 13.26171875 C5.46085938 14.16535156 5.72640625 15.06898438 6 16 C6.66 15.67 7.32 15.34 8 15 C7.1875 16.9375 7.1875 16.9375 6 19 C5.01 19.33 4.02 19.66 3 20 C3 18.68 3 17.36 3 16 C2.01 16 1.02 16 0 16 C-0.1953125 13.94921875 -0.390625 11.8984375 -0.5859375 9.84765625 C-0.79089844 8.93306641 -0.79089844 8.93306641 -1 8 C-1.66 7.67 -2.32 7.34 -3 7 C-3 5.02 -3 3.04 -3 1 C-2.01 0.67 -1.02 0.34 0 0 Z " fill="#EB7B6F" transform="translate(187,134)"/>
<path d="M0 0 C0.86625 0.4640625 0.86625 0.4640625 1.75 0.9375 C6.38080869 3.12427077 10.75243864 3.15303358 15.8125 3.125 C16.49892578 3.12886719 17.18535156 3.13273438 17.89257812 3.13671875 C22.35855357 3.12826847 26.59314064 2.72583566 31 2 C27.89795028 5.59184704 24.6337474 6.82009952 19.94921875 7.3359375 C12.78887163 7.42169016 8.02799677 6.98075259 2 3 C1.34 2.01 0.68 1.02 0 0 Z " fill="#E9C17C" transform="translate(268,232)"/>
<path d="M0 0 C1.32 0 2.64 0 4 0 C3.39516129 7.37903226 3.39516129 7.37903226 1.6875 10.0625 C0 11 0 11 -2.1875 10.6875 C-2.785625 10.460625 -3.38375 10.23375 -4 10 C-4 12.31 -4 14.62 -4 17 C-5.98 17.99 -5.98 17.99 -8 19 C-8 15.37 -8 11.74 -8 8 C-5.69 8 -3.38 8 -1 8 C-0.67 5.36 -0.34 2.72 0 0 Z " fill="#E95D47" transform="translate(224,184)"/>
<path d="M0 0 C0.66 0.33 1.32 0.66 2 1 C1.67 2.32 1.34 3.64 1 5 C0.01 4.67 -0.98 4.34 -2 4 C-1.67 4.99 -1.34 5.98 -1 7 C-1.8125 9.625 -1.8125 9.625 -3 12 C-3.99 12.495 -3.99 12.495 -5 13 C-7.29013653 9.5647952 -7.17842973 8.014669 -7 4 C-7.99 4.99 -8.98 5.98 -10 7 C-9.34 5.02 -8.68 3.04 -8 1 C-7.05125 1.020625 -6.1025 1.04125 -5.125 1.0625 C-2.09333717 1.22551826 -2.09333717 1.22551826 0 0 Z " fill="#F7AF46" transform="translate(268,207)"/>
<path d="M0 0 C1.19367188 -0.02578125 2.38734375 -0.0515625 3.6171875 -0.078125 C7.4299138 0.278522 9.83756738 1.33987095 13.125 3.25 C10.125 4.25 10.125 4.25 8.0625 3.375 C3.84661732 1.76040663 -0.39799968 1.58034177 -4.875 1.25 C-5.205 2.57 -5.535 3.89 -5.875 5.25 C-7.091875 5.518125 -8.30875 5.78625 -9.5625 6.0625 C-13.09621044 6.93494361 -15.8518282 8.17156939 -18.875 10.25 C-17.87761116 6.65940017 -16.98779244 5.33827235 -14 3 C-9.22799061 0.32767474 -5.46634072 0.07053343 0 0 Z " fill="#D14783" transform="translate(152.875,79.75)"/>
<path d="M0 0 C0.66 0.33 1.32 0.66 2 1 C0.53189318 8.53510249 -4.51609779 15.85539327 -9 22 C-9.33 22 -9.66 22 -10 22 C-9.67 19.36 -9.34 16.72 -9 14 C-8.34 14 -7.68 14 -7 14 C-6.896875 13.2575 -6.79375 12.515 -6.6875 11.75 C-5.94406435 8.77625741 -4.90193275 7.35839661 -3 5 C-2.31822584 3.67432801 -1.64808564 2.34246312 -1 1 C-0.67 0.67 -0.34 0.34 0 0 Z " fill="#DE7279" transform="translate(237,170)"/>
<path d="M0 0 C1.71043551 1.95794039 2.78517309 3.68078499 4 6 C3.67 6.66 3.34 7.32 3 8 C1.65787938 6.90653119 0.32652025 5.7998425 -1 4.6875 C-1.7425 4.07261719 -2.485 3.45773438 -3.25 2.82421875 C-5 1 -5 1 -5 -2 C-10.24955168 -4.15758273 -14.80810284 -4.24042211 -20.375 -4.125 C-21.62216797 -4.11146484 -21.62216797 -4.11146484 -22.89453125 -4.09765625 C-24.92981337 -4.0742622 -26.96494564 -4.03839725 -29 -4 C-21.41456267 -11.58543733 -6.97119636 -5.62610467 0 0 Z " fill="#F7C1DE" transform="translate(171,85)"/>
<path d="M0 0 C3.55007995 3.55007995 4.6004503 8.64541196 6.25 13.3125 C6.63929688 14.35857422 7.02859375 15.40464844 7.4296875 16.48242188 C7.78804688 17.49498047 8.14640625 18.50753906 8.515625 19.55078125 C8.84852539 20.47544189 9.18142578 21.40010254 9.52441406 22.3527832 C10.0987817 25.54984087 9.44613546 27.14229935 8 30 C7.67 30 7.34 30 7 30 C7 27.69 7 25.38 7 23 C6.34 23 5.68 23 5 23 C5 20.03 5 17.06 5 14 C4.01 14 3.02 14 2 14 C1.66179834 12.4176994 1.32964061 10.83410625 1 9.25 C0.814375 8.36828125 0.62875 7.4865625 0.4375 6.578125 C0 4 0 4 0 0 Z " fill="#E26F74" transform="translate(274,118)"/>
<path d="M0 0 C1.4375 1.0625 1.4375 1.0625 3 3 C3.144375 4.175625 3.28875 5.35125 3.4375 6.5625 C3.623125 7.696875 3.80875 8.83125 4 10 C5.93597032 11.51294288 5.93597032 11.51294288 8 12 C7.67 12.66 7.34 13.32 7 14 C7.09966665 16.08336446 7.09966665 16.08336446 7.4375 18.375 C7.82832813 21.33342052 8 23.98874127 8 27 C7.34 27 6.68 27 6 27 C6 24.36 6 21.72 6 19 C5.34 19 4.68 19 4 19 C3.32713788 16.58490559 2.66153988 14.16819644 2 11.75 C1.71382812 10.72712891 1.71382812 10.72712891 1.421875 9.68359375 C0.50042956 6.29399088 0 3.54221024 0 0 Z " fill="#EE8538" transform="translate(152,181)"/>
<path d="M0 0 C0.66 0 1.32 0 2 0 C2.35099077 3.77315072 2.36755366 5.48542488 0.125 8.625 C-0.57625 9.40875 -1.2775 10.1925 -2 11 C-2.69937532 12.31647119 -3.36729133 13.65022151 -4 15 C-4.515625 15.845625 -5.03125 16.69125 -5.5625 17.5625 C-7.11858764 20.00654778 -7.11858764 20.00654778 -8 23 C-8.66 23 -9.32 23 -10 23 C-8.15979968 14.41239851 -4.39502064 7.5343211 0 0 Z " fill="#F65E3A" transform="translate(190,156)"/>
<path d="M0 0 C1.80187563 2.70281344 2.49132793 4.29233453 3.2890625 7.34375 C3.50820312 8.17777344 3.72734375 9.01179688 3.953125 9.87109375 C4.17484375 10.73863281 4.3965625 11.60617188 4.625 12.5 C4.96917969 13.80130859 4.96917969 13.80130859 5.3203125 15.12890625 C7 21.59770275 7 21.59770275 7 25 C6.34 25 5.68 25 5 25 C4.731875 23.865625 4.46375 22.73125 4.1875 21.5625 C3.795625 20.386875 3.40375 19.21125 3 18 C2.01 17.67 1.02 17.34 0 17 C0 11.39 0 5.78 0 0 Z " fill="#E68799" transform="translate(180,108)"/>
<path d="M0 0 C1 2 1 2 0.875 4.3125 C1.03142772 7.67569606 2.12988237 9.22945537 4 12 C6.40636315 15.56498245 7.37114482 17.66997709 7 22 C1.94260925 17.80959052 -1.30744544 12.36766471 -3 6 C-1.77029703 1.77029703 -1.77029703 1.77029703 0 0 Z " fill="#EAB86A" transform="translate(261,210)"/>
<path d="M0 0 C3.37462715 0.54723683 5.08235 1.0549 8 3 C7.67 4.32 7.34 5.64 7 7 C3.28400809 7.20086443 2.22791555 7.1519437 -1 5 C-1 5.99 -1 6.98 -1 8 C-1.66 8 -2.32 8 -3 8 C-3.33 8.99 -3.66 9.98 -4 11 C-3.56179109 6.44262737 -3.14958831 3.42346555 0 0 Z " fill="#EF9226" transform="translate(308,85)"/>
<path d="M0 0 C0.99 0.495 0.99 0.495 2 1 C2 2.98 2 4.96 2 7 C2.66 7 3.32 7 4 7 C4.33 10.96 4.66 14.92 5 19 C5.99 19.33 6.98 19.66 8 20 C8 21.65 8 23.3 8 25 C6.68 25 5.36 25 4 25 C2.90493508 21.71480525 2.90039392 19.26336585 2.9375 15.8125 C2.94652344 14.72582031 2.95554688 13.63914063 2.96484375 12.51953125 C2.97644531 11.68808594 2.98804688 10.85664063 3 10 C2.34 10 1.68 10 1 10 C-0.60725635 6.78548731 -0.05748185 3.56387464 0 0 Z " fill="#E07876" transform="translate(136,128)"/>
<path d="M0 0 C5.92628056 2.1615613 10.02388244 4.96374081 14.5703125 9.3125 C13.5703125 11.3125 13.5703125 11.3125 11.5703125 12.3125 C11.5703125 10.9925 11.5703125 9.6725 11.5703125 8.3125 C10.2503125 8.3125 8.9303125 8.3125 7.5703125 8.3125 C7.5703125 7.6525 7.5703125 6.9925 7.5703125 6.3125 C5.9203125 5.6525 4.2703125 4.9925 2.5703125 4.3125 C2.5703125 3.6525 2.5703125 2.9925 2.5703125 2.3125 C-2.7096875 1.9825 -7.9896875 1.6525 -13.4296875 1.3125 C-8.5307869 -1.1369503 -5.31490491 -1.50389592 0 0 Z " fill="#E98BBF" transform="translate(251.4296875,87.6875)"/>
<path d="M0 0 C0.33 0.66 0.66 1.32 1 2 C1.99 2 2.98 2 4 2 C4.33 4.64 4.66 7.28 5 10 C5.99 10.33 6.98 10.66 8 11 C8 12.98 8 14.96 8 17 C8.99 17.33 9.98 17.66 11 18 C10.01 20.475 10.01 20.475 9 23 C6.56061628 19.34092442 5.0404058 15.55519543 3.375 11.5 C2.88773438 10.34177734 2.88773438 10.34177734 2.390625 9.16015625 C2.08382812 8.41636719 1.77703125 7.67257813 1.4609375 6.90625 C1.18040527 6.22884766 0.89987305 5.55144531 0.61083984 4.85351562 C0 3 0 3 0 0 Z " fill="#E3A37B" transform="translate(249,190)"/>
<path d="M0 0 C-0.886875 0.433125 -1.77375 0.86625 -2.6875 1.3125 C-7.46753752 4.41214428 -9.01086792 9.89514776 -11 15 C-11.66 15 -12.32 15 -13 15 C-13.33 18.63 -13.66 22.26 -14 26 C-14.33 26 -14.66 26 -15 26 C-15.66473952 17.15527136 -14.00203229 10.59760631 -8.5 3.5625 C-3.37704918 -1.68852459 -3.37704918 -1.68852459 0 0 Z " fill="#ECADCF" transform="translate(142,82)"/>
<path d="M0 0 C0.99 0.33 1.98 0.66 3 1 C4.18637743 4.55913229 4.14615346 7.798145 4.125 11.5 C4.12886719 12.17675781 4.13273437 12.85351562 4.13671875 13.55078125 C4.13062416 16.64073767 3.9844023 19.04679311 3 22 C2.01 21.67 1.02 21.34 0 21 C0 19.35 0 17.7 0 16 C0.66 16 1.32 16 2 16 C1.34 10.72 0.68 5.44 0 0 Z " fill="#E2A456" transform="translate(347,91)"/>
<path d="M0 0 C0.99 0.66 1.98 1.32 3 2 C3.1875 5.625 3.1875 5.625 3 9 C1.02 9.99 1.02 9.99 -1 11 C-1 10.34 -1 9.68 -1 9 C-2.32 10.32 -3.64 11.64 -5 13 C-5 9.3591615 -3.89347937 8.05869744 -2 5 C-1.30177383 3.34630643 -0.62501395 1.68272986 0 0 Z " fill="#EF2B62" transform="translate(205,133)"/>
<path d="M0 0 C0.33 0.66 0.66 1.32 1 2 C0.30477136 3.72151853 -0.39964303 5.44052634 -1.171875 7.12890625 C-2.11879608 9.18854758 -2.11879608 9.18854758 -3.0625 12.1875 C-3.86992311 14.60976934 -4.79254705 16.75758738 -6 19 C-7.32 19 -8.64 19 -10 19 C-8.40376856 14.60616294 -6.21975667 10.71004193 -3.875 6.6875 C-3.50246094 6.04232422 -3.12992188 5.39714844 -2.74609375 4.73242188 C-1.83367787 3.15324055 -0.91724491 1.57638136 0 0 Z " fill="#DE568A" transform="translate(214,115)"/>
<path d="M0 0 C0.99 0 1.98 0 3 0 C2.38965243 3.48576282 1.48391539 6.5871923 0.15234375 9.86328125 C-0.20537109 10.74951172 -0.56308594 11.63574219 -0.93164062 12.54882812 C-1.49141602 13.9168457 -1.49141602 13.9168457 -2.0625 15.3125 C-2.43955078 16.24384766 -2.81660156 17.17519531 -3.20507812 18.13476562 C-4.13283125 20.42478917 -5.06458001 22.71309996 -6 25 C-6.33 25 -6.66 25 -7 25 C-6.6520178 19.49228179 -6.11820636 15.67730954 -3 11 C-2.29329272 8.30745009 -2.29329272 8.30745009 -2 6 C-1.34 6 -0.68 6 0 6 C0 4.02 0 2.04 0 0 Z " fill="#EABE79" transform="translate(337,138)"/>
<path d="M0 0 C1.41623216 -0.05447047 2.83308191 -0.09300508 4.25 -0.125 C5.03890625 -0.14820312 5.8278125 -0.17140625 6.640625 -0.1953125 C10.04458096 0.08647193 12.18546042 1.30182322 14.75 3.5 C16 5 16 5 16 7 C17.32 7 18.64 7 20 7 C20 7.99 20 8.98 20 10 C17.525 9.505 17.525 9.505 15 9 C15 8.01 15 7.02 15 6 C13.35 6 11.7 6 10 6 C10 5.01 10 4.02 10 3 C9.01 3 8.02 3 7 3 C7 2.34 7 1.68 7 1 C4.69 1 2.38 1 0 1 C0 0.67 0 0.34 0 0 Z " fill="#D61971" transform="translate(243,89)"/>
<path d="M0 0 C1.98 0 3.96 0 6 0 C5.63076923 7.38461538 5.63076923 7.38461538 2.4375 10.5 C1.633125 10.995 0.82875 11.49 0 12 C0.33 9.69 0.66 7.38 1 5 C1.66 5 2.32 5 3 5 C3 4.34 3 3.68 3 3 C2.01 3.33 1.02 3.66 0 4 C-0.33 3.34 -0.66 2.68 -1 2 C-0.67 1.34 -0.34 0.68 0 0 Z " fill="#F1AF4C" transform="translate(305,208)"/>
<path d="M0 0 C0.33 0 0.66 0 1 0 C1.16837909 4.96718303 1.20722336 8.46938362 -1 13 C-1.54643316 14.26879113 -2.08789238 15.53973312 -2.625 16.8125 C-3.305625 18.3903125 -3.305625 18.3903125 -4 20 C-4.66 20 -5.32 20 -6 20 C-5.34983099 13.98593666 -3.11573952 8.6155253 -1 3 C-0.67 2.01 -0.34 1.02 0 0 Z " fill="#E8B870" transform="translate(292,120)"/>
<path d="M0 0 C-0.66 0.66 -1.32 1.32 -2 2 C-2.33 2.99 -2.66 3.98 -3 5 C-6.3 5.66 -9.6 6.32 -13 7 C-11.85343125 3.56029374 -11.15481722 3.1217771 -8.1875 1.25 C-7.50042969 0.80140625 -6.81335938 0.3528125 -6.10546875 -0.109375 C-3.60065169 -1.16892656 -2.50718765 -0.92399724 0 0 Z " fill="#EFC78D" transform="translate(320,79)"/>
<path d="M0 0 C0.6171875 1.78125 0.6171875 1.78125 1 4 C0.03851278 5.79477614 -0.93035514 7.5887591 -2.0078125 9.31640625 C-3.1003122 11.17021479 -3.66021456 12.87634099 -4 15 C-5.32 15 -6.64 15 -8 15 C-6.51194289 9.19657726 -3.40902445 4.82409121 0 0 Z " fill="#E06181" transform="translate(203,134)"/>
<path d="M0 0 C0.66 0.33 1.32 0.66 2 1 C2 3.64 2 6.28 2 9 C-0.31 10.32 -2.62 11.64 -5 13 C-4.39009109 9.44219804 -3.4216319 6.3171411 -2 3 C-1.34 3 -0.68 3 0 3 C0 2.01 0 1.02 0 0 Z " fill="#F69925" transform="translate(294,125)"/>
<path d="M0 0 C1.32827107 2.65654214 0.72245548 3.59432385 -0.1875 6.375 C-1.4907416 10.08744512 -2.7613141 12.59710401 -6 15 C-6.66 15 -7.32 15 -8 15 C-6.51194289 9.19657726 -3.40902445 4.82409121 0 0 Z " fill="#E06BA5" transform="translate(223,100)"/>
<path d="M0 0 C3.96 0 7.92 0 12 0 C11.67 1.65 11.34 3.3 11 5 C6.94393835 4.53199289 3.53411321 4.12046792 0 2 C0 1.34 0 0.68 0 0 Z " fill="#F19027" transform="translate(172,232)"/>
<path d="M0 0 C0.66 0 1.32 0 2 0 C2 1.98 2 3.96 2 6 C2.66 6 3.32 6 4 6 C4.33 5.34 4.66 4.68 5 4 C6.125 8.75 6.125 8.75 5 11 C5.27942455 12.67654729 5.60828247 14.34608154 6 16 C5.34 16 4.68 16 4 16 C2.64560332 13.29120665 2.93498549 10.99066732 3 8 C2.01 8 1.02 8 0 8 C0 5.36 0 2.72 0 0 Z " fill="#F99F54" transform="translate(250,184)"/>
<path d="M0 0 C0.66 0 1.32 0 2 0 C0.21470545 6.76532673 -2.49937851 11.65460165 -7 17 C-8.25541557 13.23375329 -7.37061958 11.62811066 -6 8 C-5.34 8 -4.68 8 -4 8 C-3.67 6.68 -3.34 5.36 -3 4 C-2.34 4 -1.68 4 -1 4 C-0.67 2.68 -0.34 1.36 0 0 Z " fill="#F87532" transform="translate(182,168)"/>
<path d="M0 0 C0.66 0 1.32 0 2 0 C2.33 1.65 2.66 3.3 3 5 C3.66 4.67 4.32 4.34 5 4 C5.33 4.99 5.66 5.98 6 7 C5.67 7.66 5.34 8.32 5 9 C6.65 8.67 8.3 8.34 10 8 C10.66 9.32 11.32 10.64 12 12 C3.68421053 11.20040486 3.68421053 11.20040486 1 8 C0.36962013 5.29684566 0.18290965 2.78937221 0 0 Z " fill="#F4B357" transform="translate(267,224)"/>
<path d="M0 0 C0.66 0 1.32 0 2 0 C1.51275105 6.33423641 -1.39303065 12.00264691 -5.5390625 16.76953125 C-7 18 -7 18 -9 18 C-8.505 16.515 -8.505 16.515 -8 15 C-7.34 15 -6.68 15 -6 15 C-6 14.01 -6 13.02 -6 12 C-5.34 12 -4.68 12 -4 12 C-3.814375 11.1028125 -3.814375 11.1028125 -3.625 10.1875 C-3 8 -3 8 -1 5 C-0.61500109 3.34450469 -0.27206865 1.6777567 0 0 Z " fill="#E6BD7C" transform="translate(308,216)"/>
<path d="M0 0 C2.64 0 5.28 0 8 0 C7.67 0.99 7.34 1.98 7 3 C4.9375 3.6875 4.9375 3.6875 3 4 C3 5.65 3 7.3 3 9 C2.01 9 1.02 9 0 9 C0 6.03 0 3.06 0 0 Z " fill="#EE6E35" transform="translate(208,208)"/>
<path d="M0 0 C0.99 0 1.98 0 3 0 C2.34 5.28 1.68 10.56 1 16 C0.34 15.67 -0.32 15.34 -1 15 C-2.39356576 9.66174407 -2.21841738 5.08931047 0 0 Z " fill="#FC266E" transform="translate(229,128)"/>
<path d="M0 0 C1.11701146 3.35103437 0.737287 5.59004761 0 9 C0.33 9.33 0.66 9.66 1 10 C1.04080783 11.99958364 1.04254356 14.00045254 1 16 C-1.56564811 13.43435189 -2.13640893 11.52079438 -3 8 C-2.75 4.1875 -2.75 4.1875 -2 1 C-1.34 0.67 -0.68 0.34 0 0 Z " fill="#F2437C" transform="translate(134,108)"/>
<path d="M0 0 C2.30153291 2.30153291 2.7577028 3.84875905 3.6875 6.9375 C3.95949219 7.81277344 4.23148438 8.68804687 4.51171875 9.58984375 C5 12 5 12 4 15 C3.34 13.68 2.68 12.36 2 11 C1.01 11.495 1.01 11.495 0 12 C0 9.36 0 6.72 0 4 C-0.66 3.67 -1.32 3.34 -2 3 C-1.34 2.01 -0.68 1.02 0 0 Z " fill="#E880A8" transform="translate(175,93)"/>
<path d="M0 0 C1.65 0 3.3 0 5 0 C4.38416344 1.98203709 3.75706166 3.9605772 3.125 5.9375 C2.77695312 7.03964844 2.42890625 8.14179688 2.0703125 9.27734375 C1 12 1 12 -1 13 C-1.02708567 11.39592672 -1.04643483 9.7917215 -1.0625 8.1875 C-1.07410156 7.29417969 -1.08570313 6.40085938 -1.09765625 5.48046875 C-1 3 -1 3 0 0 Z " fill="#F6A639" transform="translate(313,191)"/>
<path d="M0 0 C0.309375 0.639375 0.61875 1.27875 0.9375 1.9375 C1.8345163 3.93610821 1.8345163 3.93610821 3 5 C2.91015699 6.85772162 2.75388139 8.71247985 2.5625 10.5625 C2.46066406 11.57441406 2.35882813 12.58632812 2.25390625 13.62890625 C2.12822266 14.80259766 2.12822266 14.80259766 2 16 C-0.91491002 11.62763497 -1.22085649 7.73530096 -0.5625 2.5625 C-0.376875 1.716875 -0.19125 0.87125 0 0 Z " fill="#EA896B" transform="translate(147,164)"/>
<path d="M0 0 C0.33 0 0.66 0 1 0 C1.33623796 1.2909136 1.66889249 2.58276097 2 3.875 C2.185625 4.59429687 2.37125 5.31359375 2.5625 6.0546875 C3 8 3 8 3 10 C3.66 9.67 4.32 9.34 5 9 C4.67 11.31 4.34 13.62 4 16 C3.01 16.33 2.02 16.66 1 17 C1.020625 16.195625 1.04125 15.39125 1.0625 14.5625 C1.29633621 12.06645115 1.29633621 12.06645115 0 11 C-0.07226502 9.14712498 -0.0838122 7.29166122 -0.0625 5.4375 C-0.05347656 4.42558594 -0.04445312 3.41367188 -0.03515625 2.37109375 C-0.02355469 1.58863281 -0.01195312 0.80617187 0 0 Z " fill="#F26562" transform="translate(238,154)"/>
<path d="M0 0 C3.21580751 2.63885381 4.29440276 5.73085433 5.75 9.5625 C6.19859375 10.71878906 6.6471875 11.87507813 7.109375 13.06640625 C8 16 8 16 7 18 C3.32135086 12.06080693 1.20337119 6.89203498 0 0 Z " fill="#E286B0" transform="translate(266,99)"/>
<path d="M0 0 C0.66 0 1.32 0 2 0 C1.39363767 5.76044212 -0.75658279 10.72014369 -3 16 C-4.01054862 12.96835415 -4.0265912 11.48249249 -3.6875 8.375 C-3.60886719 7.57835937 -3.53023438 6.78171875 -3.44921875 5.9609375 C-3.30097656 5.31382812 -3.15273438 4.66671875 -3 4 C-2.34 3.67 -1.68 3.34 -1 3 C-0.67 2.01 -0.34 1.02 0 0 Z " fill="#E8BA71" transform="translate(314,200)"/>
<path d="M0 0 C0.33 0.66 0.66 1.32 1 2 C0.07421875 3.9453125 0.07421875 3.9453125 -1.3125 6.125 C-1.76238281 6.84945312 -2.21226562 7.57390625 -2.67578125 8.3203125 C-3.11277344 8.87460938 -3.54976562 9.42890625 -4 10 C-4.66 10 -5.32 10 -6 10 C-6 7.36 -6 4.72 -6 2 C-4.7934375 1.7834375 -4.7934375 1.7834375 -3.5625 1.5625 C-1.07896294 1.25864751 -1.07896294 1.25864751 0 0 Z " fill="#E58270" transform="translate(226,192)"/>
<path d="M0 0 C2 1 2 1 2.703125 2.9609375 C2.88359375 3.75757813 3.0640625 4.55421875 3.25 5.375 C3.53617188 6.56222656 3.53617188 6.56222656 3.828125 7.7734375 C4 10 4 10 2 13 C1.70996094 12.16855469 1.70996094 12.16855469 1.4140625 11.3203125 C1.15367187 10.59585938 0.89328125 9.87140625 0.625 9.125 C0.36976563 8.40570313 0.11453125 7.68640625 -0.1484375 6.9453125 C-0.93877783 4.81842006 -0.93877783 4.81842006 -3 3 C-2.01 2.67 -1.02 2.34 0 2 C0 1.34 0 0.68 0 0 Z " fill="#E7988A" transform="translate(242,168)"/>
<path d="M0 0 C2 3 2 3 2.875 4.9375 C4.22643254 7.41512632 5.94644091 9.08334485 8 11 C7.01 11.495 7.01 11.495 6 12 C2.15443885 10.71814628 1.57931973 9.21420223 -0.28125 5.7890625 C-1 4 -1 4 -0.75 1.5625 C-0.5025 1.046875 -0.255 0.53125 0 0 Z " fill="#E2993F" transform="translate(162,219)"/>
<path d="M0 0 C1.98 0.99 1.98 0.99 4 2 C3.814375 2.928125 3.62875 3.85625 3.4375 4.8125 C2.75876119 8.01343771 2.75876119 8.01343771 4 11 C3.01 11 2.02 11 1 11 C-0.17571451 7.32589215 -0.07366746 3.83070817 0 0 Z " fill="#F85A59" transform="translate(140,136)"/>
<path d="M0 0 C2.37616467 2.37616467 3.04068181 4.35349521 4.1875 7.5 C4.55230469 8.4796875 4.91710937 9.459375 5.29296875 10.46875 C6 13 6 13 5 15 C4.01 14.67 3.02 14.34 2 14 C1.66179834 12.4176994 1.32964061 10.83410625 1 9.25 C0.814375 8.36828125 0.62875 7.4865625 0.4375 6.578125 C0 4 0 4 0 0 Z " fill="#E17F97" transform="translate(274,118)"/>
<path d="M0 0 C0.90105469 0.00902344 1.80210937 0.01804687 2.73046875 0.02734375 C3.41753906 0.03894531 4.10460937 0.05054687 4.8125 0.0625 C4.4825 1.0525 4.1525 2.0425 3.8125 3.0625 C2.83410156 3.04509766 2.83410156 3.04509766 1.8359375 3.02734375 C-2.9636914 2.97779006 -7.46534685 3.06836249 -12.1875 4.0625 C-8.09095916 0.81351933 -5.20355176 -0.06757859 0 0 Z " fill="#E80B70" transform="translate(245.1875,89.9375)"/>
<path d="M0 0 C1.485 0.99 1.485 0.99 3 2 C2.67 2.66 2.34 3.32 2 4 C2.09966665 6.08336446 2.09966665 6.08336446 2.4375 8.375 C2.82832813 11.33342052 3 13.98874127 3 17 C2.34 17 1.68 17 1 17 C0.93941406 16.26394531 0.87882813 15.52789062 0.81640625 14.76953125 C0.73261719 13.79371094 0.64882812 12.81789062 0.5625 11.8125 C0.48128906 10.84957031 0.40007812 9.88664063 0.31640625 8.89453125 C0.04941042 6.0001302 0.04941042 6.0001302 -0.59765625 3.19921875 C-0.73042969 2.47347656 -0.86320313 1.74773437 -1 1 C-0.67 0.67 -0.34 0.34 0 0 Z " fill="#F38E28" transform="translate(157,191)"/>
<path d="M0 0 C1.32 0 2.64 0 4 0 C3.34 2.64 2.68 5.28 2 8 C0.68 8 -0.64 8 -2 8 C-2 6.68 -2 5.36 -2 4 C-1.34 4 -0.68 4 0 4 C0 2.68 0 1.36 0 0 Z " fill="#F7A32E" transform="translate(322,168)"/>
<path d="M0 0 C0.66 0 1.32 0 2 0 C1.5188509 5.77378925 -0.18467181 9.95859836 -3 15 C-4.6594907 11.6810186 -3.01808761 8.39146382 -2 5 C-1.36971413 3.31923769 -0.71949183 1.64455275 0 0 Z " fill="#EC096F" transform="translate(223,104)"/>
<path d="M0 0 C1.32 0 2.64 0 4 0 C4 3.96 4 7.92 4 12 C2.09681116 9.14521674 1.5380901 7.58058692 0.875 4.3125 C0.70742187 3.50425781 0.53984375 2.69601563 0.3671875 1.86328125 C0.24601563 1.24839844 0.12484375 0.63351563 0 0 Z " fill="#E6A853" transform="translate(157,208)"/>
<path d="M0 0 C0.99 0.495 0.99 0.495 2 1 C2 2.98 2 4.96 2 7 C2.66 7 3.32 7 4 7 C4.33 9.97 4.66 12.94 5 16 C4.34 16 3.68 16 3 16 C3 14.02 3 12.04 3 10 C2.34 10 1.68 10 1 10 C-0.60725635 6.78548731 -0.05748185 3.56387464 0 0 Z " fill="#E3566E" transform="translate(136,128)"/>
<path d="M0 0 C2.25 0.125 2.25 0.125 5 1 C7.3125 4.0625 7.3125 4.0625 9 7 C8.67 7.66 8.34 8.32 8 9 C6.66079162 7.88200014 5.32877444 6.75538103 4 5.625 C2.88625 4.68527344 2.88625 4.68527344 1.75 3.7265625 C1.1725 3.15679687 0.595 2.58703125 0 2 C0 1.34 0 0.68 0 0 Z " fill="#E487B0" transform="translate(166,84)"/>
<path d="M0 0 C2.12508244 3.18762365 2.5020163 5.26512223 3 9 C2.01 9 1.02 9 0 9 C-0.33 9.66 -0.66 10.32 -1 11 C-1.02688151 9.35425434 -1.04634123 7.70838587 -1.0625 6.0625 C-1.07410156 5.14597656 -1.08570313 4.22945313 -1.09765625 3.28515625 C-1 1 -1 1 0 0 Z " fill="#DE4F77" transform="translate(177,103)"/>
<path d="M0 0 C1.9451 2.91765 2.45276317 4.62537285 3 8 C3.66 8 4.32 8 5 8 C5 10.97 5 13.94 5 17 C3.14670366 14.22005549 2.31436395 12.21743449 1.375 9.0625 C1.11460937 8.20785156 0.85421875 7.35320312 0.5859375 6.47265625 C0 4 0 4 0 0 Z " fill="#EDA5B4" transform="translate(134,130)"/>
<path d="M0 0 C1.9814066 2.9721099 2.7434556 4.49389321 3 8 C1.5625 10.3125 1.5625 10.3125 0 12 C-1.16063604 7.74433453 -0.76173392 4.3164922 0 0 Z " fill="#F24860" transform="translate(273,123)"/>
<path d="M0 0 C3 1 3 1 5 4 C5.4140625 6.26171875 5.4140625 6.26171875 5.625 8.6875 C5.69976562 9.49574219 5.77453125 10.30398437 5.8515625 11.13671875 C5.92503906 12.05904297 5.92503906 12.05904297 6 13 C2.57068046 9.2440786 1.43570917 4.76533255 0 0 Z " fill="#DB396B" transform="translate(269,113)"/>
<path d="M0 0 C0.99 0.33 1.98 0.66 3 1 C3.19627391 2.58226965 3.38165538 4.16589271 3.5625 5.75 C3.66691406 6.63171875 3.77132812 7.5134375 3.87890625 8.421875 C3.99456676 10.88432451 3.73638695 12.66538064 3 15 C2.49363393 13.25183142 1.99515381 11.50137737 1.5 9.75 C1.2215625 8.77546875 0.943125 7.8009375 0.65625 6.796875 C0 4 0 4 0 0 Z " fill="#E99ABA" transform="translate(128,109)"/>
<path d="M0 0 C1.74627478 2.61941217 2.38722388 4.03824877 3 7 C1.68 6.34 0.36 5.68 -1 5 C-1 5.99 -1 6.98 -1 8 C-1.66 8 -2.32 8 -3 8 C-3.33 8.99 -3.66 9.98 -4 11 C-3.56179109 6.44262737 -3.14958831 3.42346555 0 0 Z " fill="#E29F43" transform="translate(308,85)"/>
<path d="M0 0 C0.68707555 2.49064888 1 4.37886292 1 7 C-1.31 7 -3.62 7 -6 7 C-4.77065985 3.31197956 -3.06140622 2.27643027 0 0 Z " fill="#F23C7F" transform="translate(143,89)"/>
<path d="M0 0 C0.99 0 1.98 0 3 0 C3 2.31 3 4.62 3 7 C2.01 7 1.02 7 0 7 C-1.125 2.25 -1.125 2.25 0 0 Z " fill="#F24E65" transform="translate(276,132)"/>
<path d="M0 0 C1.98 0.495 1.98 0.495 4 1 C4.33 2.32 4.66 3.64 5 5 C3.68 5.33 2.36 5.66 1 6 C1 5.34 1 4.68 1 4 C0.34 4 -0.32 4 -1 4 C-0.67 2.68 -0.34 1.36 0 0 Z " fill="#F69016" transform="translate(337,84)"/>
<path d="M0 0 C0.99 0.33 1.98 0.66 3 1 C1.375 4 1.375 4 -1 7 C-4.25 7.375 -4.25 7.375 -7 7 C-5.68 6.34 -4.36 5.68 -3 5 C-3 4.34 -3 3.68 -3 3 C-1.5 1.375 -1.5 1.375 0 0 Z " fill="#E49441" transform="translate(204,225)"/>
<path d="M0 0 C1.47277334 2.94554669 1 5.72766559 1 9 C1.29185063 11.0064731 1.61169599 13.00994193 2 15 C-1.04816705 11.95183295 -2.23696775 8.21163879 -3 4 C-1.6875 1.4375 -1.6875 1.4375 0 0 Z " fill="#EABE78" transform="translate(261,210)"/>
<path d="M0 0 C0.99 0 1.98 0 3 0 C2.49701212 4.40114397 0.91227269 6.71195019 -2 10 C-2.33 8.35 -2.66 6.7 -3 5 C-2.01 5 -1.02 5 0 5 C0 3.35 0 1.7 0 0 Z " fill="#E29660" transform="translate(211,212)"/>
<path d="M0 0 C1.46726798 3.81489674 0.43336419 6.29011622 -1 10 C-1.66 9.67 -2.32 9.34 -3 9 C-3.36923077 3.46153846 -3.36923077 3.46153846 -1.5 1.125 C-1.005 0.75375 -0.51 0.3825 0 0 Z " fill="#EE4851" transform="translate(194,151)"/>
<path d="M0 0 C0.66 0 1.32 0 2 0 C2.3125 2.6875 2.3125 2.6875 2 6 C-0.5 8.875 -0.5 8.875 -3 11 C-2.53199289 6.94393835 -2.12046792 3.53411321 0 0 Z " fill="#F45144" transform="translate(190,156)"/>
<path d="M0 0 C0.66 0.33 1.32 0.66 2 1 C2.75 4.375 2.75 4.375 3 8 C2.01 9.485 2.01 9.485 1 11 C0.63890458 9.35567294 0.28629924 7.7094792 -0.0625 6.0625 C-0.25972656 5.14597656 -0.45695313 4.22945312 -0.66015625 3.28515625 C-0.77230469 2.53105469 -0.88445312 1.77695313 -1 1 C-0.67 0.67 -0.34 0.34 0 0 Z " fill="#DF897E" transform="translate(142,152)"/>
<path d="M0 0 C1.85776765 3.13498292 2.20140476 5.37471432 2 9 C1.01 9 0.02 9 -1 9 C-2.0326802 6.21176345 -2.04509293 5.1322726 -1.0625 2.25 C-0.711875 1.5075 -0.36125 0.765 0 0 Z " fill="#F29420" transform="translate(302,101)"/>
<path d="M0 0 C1.27679803 2.55359605 0.69660895 3.2909652 0 6 C-0.03786901 7.66623639 -0.04627845 9.33397597 0 11 C-0.99 11.33 -1.98 11.66 -3 12 C-2.88601335 10.37419034 -2.75844341 8.74932843 -2.625 7.125 C-2.55539063 6.22007813 -2.48578125 5.31515625 -2.4140625 4.3828125 C-2 2 -2 2 0 0 Z " fill="#F23D86" transform="translate(134,90)"/>
<path d="M0 0 C1.65 0 3.3 0 5 0 C1.4912812 3.09592835 -1.49197399 4.74194623 -6 6 C-5.34 5.01 -4.68 4.02 -4 3 C-3.01 3 -2.02 3 -1 3 C-0.67 2.01 -0.34 1.02 0 0 Z " fill="#D6994F" transform="translate(197,232)"/>
<path d="M0 0 C0.33 0 0.66 0 1 0 C1.49940808 6.11774896 0.24900602 9.02495953 -3 14 C-4 12 -4 12 -3.22265625 9.1796875 C-2.83980469 8.08914062 -2.45695312 6.99859375 -2.0625 5.875 C-1.68222656 4.77929688 -1.30195313 3.68359375 -0.91015625 2.5546875 C-0.60980469 1.71164063 -0.30945313 0.86859375 0 0 Z " fill="#F2CE9A" transform="translate(297,106)"/>
<path d="M0 0 C4.95 0 9.9 0 15 0 C15 0.33 15 0.66 15 1 C13.84371094 1.07347656 13.84371094 1.07347656 12.6640625 1.1484375 C11.66117187 1.22320312 10.65828125 1.29796875 9.625 1.375 C8.62726563 1.44460937 7.62953125 1.51421875 6.6015625 1.5859375 C3.84491121 1.76363964 3.84491121 1.76363964 2 4 C1.34 3.34 0.68 2.68 0 2 C0 1.34 0 0.68 0 0 Z " fill="#F1932E" transform="translate(317,80)"/>
<path d="M0 0 C0.33 0.66 0.66 1.32 1 2 C1.66 2 2.32 2 3 2 C4.35439668 4.70879335 4.06501451 7.00933268 4 10 C2 8.375 2 8.375 0 6 C-0.25 2.75 -0.25 2.75 0 0 Z " fill="#E69328" transform="translate(161,214)"/>
<path d="M0 0 C0.66 0 1.32 0 2 0 C2 0.66 2 1.32 2 2 C2.99 2.33 3.98 2.66 5 3 C4.34 4.65 3.68 6.3 3 8 C1.0549 5.08235 0.54723683 3.37462715 0 0 Z " fill="#ECB46A" transform="translate(255,205)"/>
<path d="M0 0 C0.66 0 1.32 0 2 0 C3.35439668 2.70879335 3.06501451 5.00933268 3 8 C2.01 8 1.02 8 0 8 C0 5.36 0 2.72 0 0 Z " fill="#F65437" transform="translate(216,192)"/>
<path d="M0 0 C0.33 0 0.66 0 1 0 C0.45144652 4.571279 -0.41744803 8.67435795 -2 13 C-2.33 13 -2.66 13 -3 13 C-2.88490339 11.58249437 -2.75746342 10.16598831 -2.625 8.75 C-2.55539062 7.96109375 -2.48578125 7.1721875 -2.4140625 6.359375 C-1.98492887 3.914123 -1.21399362 2.15163097 0 0 Z " fill="#DAAE56" transform="translate(333,150)"/>
<path d="M0 0 C0.66 0 1.32 0 2 0 C0.55049545 3.7910119 -1.15172566 7.3874638 -3 11 C-3.66 10.67 -4.32 10.34 -5 10 C-4.35699811 8.51960029 -3.71051501 7.04071218 -3.0625 5.5625 C-2.70285156 4.73878906 -2.34320313 3.91507813 -1.97265625 3.06640625 C-1 1 -1 1 0 0 Z " fill="#F58146" transform="translate(281,149)"/>
<path d="M0 0 C1.32 0 2.64 0 4 0 C3.50168276 3.68754757 2.89932357 5.60490662 0 8 C0 5.36 0 2.72 0 0 Z " fill="#F04B4A" transform="translate(224,184)"/>
<path d="M0 0 C0.66 0 1.32 0 2 0 C1.51171875 6.0546875 1.51171875 6.0546875 1 8 C0.01 8.66 -0.98 9.32 -2 10 C-1.34 6.7 -0.68 3.4 0 0 Z " fill="#F33254" transform="translate(234,168)"/>
<path d="M0 0 C0.99 0.33 1.98 0.66 3 1 C2.67 1.99 2.34 2.98 2 4 C0.35 4.33 -1.3 4.66 -3 5 C-1.125 1.125 -1.125 1.125 0 0 Z " fill="#FA8122" transform="translate(201,224)"/>
<path d="M0 0 C1.65 0 3.3 0 5 0 C4.67 1.65 4.34 3.3 4 5 C3.67 4.34 3.34 3.68 3 3 C2.01 3.33 1.02 3.66 0 4 C-0.33 3.34 -0.66 2.68 -1 2 C-0.67 1.34 -0.34 0.68 0 0 Z " fill="#FAAC40" transform="translate(305,208)"/>
<path d="M0 0 C0.33 0.66 0.66 1.32 1 2 C1.99 2.33 2.98 2.66 4 3 C4 4.32 4 5.64 4 7 C3.01 7 2.02 7 1 7 C0.67 4.69 0.34 2.38 0 0 Z " fill="#E6A269" transform="translate(253,198)"/>
<path d="M0 0 C0.66 0 1.32 0 2 0 C2 1.98 2 3.96 2 6 C2.66 6 3.32 6 4 6 C4 6.66 4 7.32 4 8 C2.68 8 1.36 8 0 8 C0 5.36 0 2.72 0 0 Z " fill="#F38F54" transform="translate(250,184)"/>
<path d="M0 0 C0.99 0.33 1.98 0.66 3 1 C3 3.97 3 6.94 3 10 C1.19669467 6.39338934 0.53400897 3.91606575 0 0 Z " fill="#DF906F" transform="translate(149,180)"/>
<path d="M0 0 C0.66 0.33 1.32 0.66 2 1 C1.34 2.32 0.68 3.64 0 5 C-0.99 5 -1.98 5 -3 5 C-3 3.68 -3 2.36 -3 1 C-2.01 0.67 -1.02 0.34 0 0 Z " fill="#F69E36" transform="translate(325,159)"/>
<path d="M0 0 C0.75 1.5625 0.75 1.5625 1 4 C-0.13084437 6.50286409 -1.52139516 8.67007722 -3 11 C-3.75 9.4375 -3.75 9.4375 -4 7 C-2.86915563 4.49713591 -1.47860484 2.32992278 0 0 Z " fill="#DF9C49" transform="translate(297,113)"/>
<path d="M0 0 C1.5625 1.6875 1.5625 1.6875 3 4 C2.6875 6.75 2.6875 6.75 2 9 C-0.57781906 6.42218094 -0.62129616 4.5598161 -1 1 C-0.67 0.67 -0.34 0.34 0 0 Z " fill="#ED3252" transform="translate(237,162)"/>
<path d="M0 0 C0.33 0 0.66 0 1 0 C3.21538462 7.38461538 3.21538462 7.38461538 2.125 10.5 C1.75375 10.995 1.3825 11.49 1 12 C0 11 0 11 -0.09765625 8.49609375 C-0.08605469 7.48675781 -0.07445312 6.47742188 -0.0625 5.4375 C-0.05347656 4.42558594 -0.04445312 3.41367188 -0.03515625 2.37109375 C-0.02355469 1.58863281 -0.01195312 0.80617187 0 0 Z " fill="#FC585E" transform="translate(238,154)"/>
<path d="M0 0 C0.66 0 1.32 0 2 0 C2.6875 2.3125 2.6875 2.3125 3 5 C1.5625 6.8125 1.5625 6.8125 0 8 C0 5.36 0 2.72 0 0 Z " fill="#DE6E5E" transform="translate(281,140)"/>
<path d="M0 0 C2 3 2 3 2 5 C-0.31 5 -2.62 5 -5 5 C-4.67 4.34 -4.34 3.68 -4 3 C-1.9375 2.375 -1.9375 2.375 0 2 C0 1.34 0 0.68 0 0 Z " fill="#F1684F" transform="translate(185,139)"/>
<path d="M0 0 C0.66 0 1.32 0 2 0 C2.125 3.375 2.125 3.375 2 7 C1.34 7.66 0.68 8.32 0 9 C-0.84454356 5.62182575 -1.10844919 3.32534757 0 0 Z " fill="#F74A6E" transform="translate(178,112)"/>
</svg>
